<mxfile host="app.diagrams.net" modified="2023-12-19T20:49:09.296Z" agent="Mozilla/5.0 (Windows NT 10.0; Win64; x64) AppleWebKit/537.36 (KHTML, like Gecko) Chrome/120.0.0.0 Safari/537.36 Edg/120.0.0.0" etag="FKwJV42poub8Xnnj3oar" version="22.1.11" type="github">
  <diagram name="第 1 页" id="nJB0Ftmji8PTShk6qqmN">
    <mxGraphModel dx="2669" dy="1700" grid="1" gridSize="10" guides="1" tooltips="1" connect="1" arrows="1" fold="1" page="1" pageScale="1" pageWidth="1169" pageHeight="827" math="0" shadow="0">
      <root>
        <mxCell id="0" />
        <mxCell id="1" parent="0" />
        <UserObject label="" plantUmlData="{&#xa;  &quot;data&quot;: &quot;@startuml\nskinparam componentStyle uml2\n\n&#39; 设置布局方向以优化空间\nleft to right direction\n\n&#39; 定义组件和数据库\npackage \&quot;HealthGuardian Hospital Management System\&quot; {\n    component [Patient App] as PA\n    component [Doctor App/Web Interface] as DA\n    component [Pharmacy System] as PS\n    component [Lab Technician System] as LS\n    component [Management Dashboard] as MD\n    component [Nursing Station] as NS\n    component [Reception Desk] as RD\n    component [System Admin Panel] as SA\n    \n    database \&quot;Patient Database\&quot; as PDB\n    database \&quot;Lab Test Database\&quot; as LDB\n    database \&quot;Medication Database\&quot; as MDB\n    database \&quot;Staff Database\&quot; as SDB\n    database \&quot;Appointment Database\&quot; as ADB\n\n    PA -down-&gt; PDB\n    DA -down-&gt; PDB\n    DA -right-&gt; LDB\n    PS -down-&gt; MDB\n    LS -left-&gt; LDB\n    MD -up-&gt; SDB\n    MD -up-&gt; PDB\n    NS -down-&gt; PDB\n    RD -right-&gt; ADB\n    RD -down-&gt; PDB\n    SA -left-&gt; PDB\n    SA -left-&gt; LDB\n    SA -left-&gt; MDB\n    SA -up-&gt; SDB\n    SA -up-&gt; ADB\n\n    &#39; 内部服务组件\n    package \&quot;Patient Services\&quot; {\n        [Patient Registration] as PR\n        [Appointment Scheduling] as AS\n        [Medical Record Access] as MRA\n        [Payment Processing] as PP\n    }\n\n    package \&quot;Doctor Services\&quot; {\n        [Patient Record Management] as PRM\n        [Diagnostic Tools] as DT\n        [Treatment Prescribing] as TP\n    }\n\n    package \&quot;Pharmacy Services\&quot; {\n        [Prescription Processing] as PP2\n        [Medication Inventory Management] as MIM\n    }\n\n    package \&quot;Lab Services\&quot; {\n        [Test Order Management] as TOM\n        [Result Entry] as RE\n    }\n\n    package \&quot;Management Services\&quot; {\n        [Staff Management] as SM\n        [User Account Management] as UAM\n        [Hospital Administration] as HA\n    }\n\n    package \&quot;Nursing Services\&quot; {\n        [Patient Care Management] as PCM\n        [Vital Sign Monitoring] as VSM\n    }\n\n    package \&quot;Reception Services\&quot; {\n        [Appointment Management] as AM\n        [Patient Check-In/Out] as PCIO\n    }\n\n    package \&quot;System Operations Services\&quot; {\n        [User Account Administration] as UAA\n        [System Monitoring] as SM2\n    }\n\n    &#39; 连接内部服务组件与相应的应用\n    PA -right-&gt; PR\n    PA -right-&gt; AS\n    PA -right-&gt; MRA\n    PA -right-&gt; PP\n\n    DA -down-&gt; PRM\n    DA -down-&gt; DT\n    DA -down-&gt; TP\n\n    PS -down-&gt; PP2\n    PS -down-&gt; MIM\n\n    LS -down-&gt; TOM\n    LS -down-&gt; RE\n\n    MD -down-&gt; SM\n    MD -down-&gt; UAM\n    MD -down-&gt; HA\n\n    NS -down-&gt; PCM\n    NS -down-&gt; VSM\n\n    RD -down-&gt; AM\n    RD -down-&gt; PCIO\n\n    SA -down-&gt; UAA\n    SA -down-&gt; SM2\n}\n\n@enduml\n&quot;,&#xa;  &quot;format&quot;: &quot;svg&quot;&#xa;}" id="hZt2TqIaDJYfJzsIGL94-74">
          <mxCell style="shape=image;noLabel=1;verticalAlign=top;aspect=fixed;imageAspect=0;image=data:image/svg+xml,PD94bWwgdmVyc2lvbj0iMS4wIiBlbmNvZGluZz0idXMtYXNjaWkiIHN0YW5kYWxvbmU9Im5vIj8+PHN2ZyB4bWxucz0iaHR0cDovL3d3dy53My5vcmcvMjAwMC9zdmciIHhtbG5zOnhsaW5rPSJodHRwOi8vd3d3LnczLm9yZy8xOTk5L3hsaW5rIiBjb250ZW50U3R5bGVUeXBlPSJ0ZXh0L2NzcyIgaGVpZ2h0PSIxMzMycHgiIHByZXNlcnZlQXNwZWN0UmF0aW89Im5vbmUiIHN0eWxlPSJ3aWR0aDoxMjM1cHg7aGVpZ2h0OjEzMzJweDtiYWNrZ3JvdW5kOiNGRkZGRkY7IiB2ZXJzaW9uPSIxLjEiIHZpZXdCb3g9IjAgMCAxMjM1IDEzMzIiIHdpZHRoPSIxMjM1cHgiIHpvb21BbmRQYW49Im1hZ25pZnkiPjxkZWZzLz48Zz48IS0tY2x1c3RlciBIZWFsdGhHdWFyZGlhbiBIb3NwaXRhbCBNYW5hZ2VtZW50IFN5c3RlbS0tPjxnIGlkPSJjbHVzdGVyX0hlYWx0aEd1YXJkaWFuIEhvc3BpdGFsIE1hbmFnZW1lbnQgU3lzdGVtIj48cGF0aCBkPSJNNzkuODcsNiBMMzY5Ljg3LDYgQTMuNzUsMy43NSAwIDAgMSAzNzIuMzcsOC41IEwzNzkuMzcsMjYuOTg0NCBMMTIyNi4zNywyNi45ODQ0IEEyLjUsMi41IDAgMCAxIDEyMjguODcsMjkuNDg0NCBMMTIyOC44NywxMzIyLjUgQTIuNSwyLjUgMCAwIDEgMTIyNi4zNywxMzI1IEw3OS44NywxMzI1IEEyLjUsMi41IDAgMCAxIDc3LjM3LDEzMjIuNSBMNzcuMzcsOC41IEEyLjUsMi41IDAgMCAxIDc5Ljg3LDYgIiBmaWxsPSJub25lIiBzdHlsZT0ic3Ryb2tlOiMwMDAwMDA7c3Ryb2tlLXdpZHRoOjEuNTsiLz48bGluZSBzdHlsZT0ic3Ryb2tlOiMwMDAwMDA7c3Ryb2tlLXdpZHRoOjEuNTsiIHgxPSI3Ny4zNyIgeDI9IjM3OS4zNyIgeTE9IjI2Ljk4NDQiIHkyPSIyNi45ODQ0Ii8+PHRleHQgZmlsbD0iIzAwMDAwMCIgZm9udC1mYW1pbHk9InNhbnMtc2VyaWYiIGZvbnQtc2l6ZT0iMTQiIGZvbnQtd2VpZ2h0PSJib2xkIiBsZW5ndGhBZGp1c3Q9InNwYWNpbmciIHRleHRMZW5ndGg9IjI4OSIgeD0iODEuMzciIHk9IjIxLjIzNDQiPkhlYWx0aEd1YXJkaWFuIEhvc3BpdGFsIE1hbmFnZW1lbnQgU3lzdGVtPC90ZXh0PjwvZz48IS0tY2x1c3RlciBQYXRpZW50IFNlcnZpY2VzLS0+PGcgaWQ9ImNsdXN0ZXJfUGF0aWVudCBTZXJ2aWNlcyI+PHBhdGggZD0iTTEwMy44Nyw0NyBMMjE2Ljg3LDQ3IEEzLjc1LDMuNzUgMCAwIDEgMjE5LjM3LDQ5LjUgTDIyNi4zNyw2Ny45ODQ0IEwzMjUuODcsNjcuOTg0NCBBMi41LDIuNSAwIDAgMSAzMjguMzcsNzAuNDg0NCBMMzI4LjM3LDM3OS41IEEyLjUsMi41IDAgMCAxIDMyNS44NywzODIgTDEwMy44NywzODIgQTIuNSwyLjUgMCAwIDEgMTAxLjM3LDM3OS41IEwxMDEuMzcsNDkuNSBBMi41LDIuNSAwIDAgMSAxMDMuODcsNDcgIiBmaWxsPSJub25lIiBzdHlsZT0ic3Ryb2tlOiMwMDAwMDA7c3Ryb2tlLXdpZHRoOjEuNTsiLz48bGluZSBzdHlsZT0ic3Ryb2tlOiMwMDAwMDA7c3Ryb2tlLXdpZHRoOjEuNTsiIHgxPSIxMDEuMzciIHgyPSIyMjYuMzciIHkxPSI2Ny45ODQ0IiB5Mj0iNjcuOTg0NCIvPjx0ZXh0IGZpbGw9IiMwMDAwMDAiIGZvbnQtZmFtaWx5PSJzYW5zLXNlcmlmIiBmb250LXNpemU9IjE0IiBmb250LXdlaWdodD0iYm9sZCIgbGVuZ3RoQWRqdXN0PSJzcGFjaW5nIiB0ZXh0TGVuZ3RoPSIxMTIiIHg9IjEwNS4zNyIgeT0iNjIuMjM0NCI+UGF0aWVudCBTZXJ2aWNlczwvdGV4dD48L2c+PCEtLWNsdXN0ZXIgRG9jdG9yIFNlcnZpY2VzLS0+PGcgaWQ9ImNsdXN0ZXJfRG9jdG9yIFNlcnZpY2VzIj48cGF0aCBkPSJNMzg2LjM3LDMzOSBMNDkyLjM3LDMzOSBBMy43NSwzLjc1IDAgMCAxIDQ5NC44NywzNDEuNSBMNTAxLjg3LDM1OS45ODQ0IEw2MjkuMzcsMzU5Ljk4NDQgQTIuNSwyLjUgMCAwIDEgNjMxLjg3LDM2Mi40ODQ0IEw2MzEuODcsNTkxLjUgQTIuNSwyLjUgMCAwIDEgNjI5LjM3LDU5NCBMMzg2LjM3LDU5NCBBMi41LDIuNSAwIDAgMSAzODMuODcsNTkxLjUgTDM4My44NywzNDEuNSBBMi41LDIuNSAwIDAgMSAzODYuMzcsMzM5ICIgZmlsbD0ibm9uZSIgc3R5bGU9InN0cm9rZTojMDAwMDAwO3N0cm9rZS13aWR0aDoxLjU7Ii8+PGxpbmUgc3R5bGU9InN0cm9rZTojMDAwMDAwO3N0cm9rZS13aWR0aDoxLjU7IiB4MT0iMzgzLjg3IiB4Mj0iNTAxLjg3IiB5MT0iMzU5Ljk4NDQiIHkyPSIzNTkuOTg0NCIvPjx0ZXh0IGZpbGw9IiMwMDAwMDAiIGZvbnQtZmFtaWx5PSJzYW5zLXNlcmlmIiBmb250LXNpemU9IjE0IiBmb250LXdlaWdodD0iYm9sZCIgbGVuZ3RoQWRqdXN0PSJzcGFjaW5nIiB0ZXh0TGVuZ3RoPSIxMDUiIHg9IjM4Ny44NyIgeT0iMzU0LjIzNDQiPkRvY3RvciBTZXJ2aWNlczwvdGV4dD48L2c+PCEtLWNsdXN0ZXIgUGhhcm1hY3kgU2VydmljZXMtLT48ZyBpZD0iY2x1c3Rlcl9QaGFybWFjeSBTZXJ2aWNlcyI+PHBhdGggZD0iTTM2NS4zNyw4NzIgTDQ4Ni4zNyw4NzIgQTMuNzUsMy43NSAwIDAgMSA0ODguODcsODc0LjUgTDQ5NS44Nyw4OTIuOTg0NCBMNjUwLjM3LDg5Mi45ODQ0IEEyLjUsMi41IDAgMCAxIDY1Mi44Nyw4OTUuNDg0NCBMNjUyLjg3LDEwNDQuNSBBMi41LDIuNSAwIDAgMSA2NTAuMzcsMTA0NyBMMzY1LjM3LDEwNDcgQTIuNSwyLjUgMCAwIDEgMzYyLjg3LDEwNDQuNSBMMzYyLjg3LDg3NC41IEEyLjUsMi41IDAgMCAxIDM2NS4zNyw4NzIgIiBmaWxsPSJub25lIiBzdHlsZT0ic3Ryb2tlOiMwMDAwMDA7c3Ryb2tlLXdpZHRoOjEuNTsiLz48bGluZSBzdHlsZT0ic3Ryb2tlOiMwMDAwMDA7c3Ryb2tlLXdpZHRoOjEuNTsiIHgxPSIzNjIuODciIHgyPSI0OTUuODciIHkxPSI4OTIuOTg0NCIgeTI9Ijg5Mi45ODQ0Ii8+PHRleHQgZmlsbD0iIzAwMDAwMCIgZm9udC1mYW1pbHk9InNhbnMtc2VyaWYiIGZvbnQtc2l6ZT0iMTQiIGZvbnQtd2VpZ2h0PSJib2xkIiBsZW5ndGhBZGp1c3Q9InNwYWNpbmciIHRleHRMZW5ndGg9IjEyMCIgeD0iMzY2Ljg3IiB5PSI4ODcuMjM0NCI+UGhhcm1hY3kgU2VydmljZXM8L3RleHQ+PC9nPjwhLS1jbHVzdGVyIExhYiBTZXJ2aWNlcy0tPjxnIGlkPSJjbHVzdGVyX0xhYiBTZXJ2aWNlcyI+PHBhdGggZD0iTTQwMC4zNyw0NyBMNDg1LjM3LDQ3IEEzLjc1LDMuNzUgMCAwIDEgNDg3Ljg3LDQ5LjUgTDQ5NC44Nyw2Ny45ODQ0IEw2MTUuMzcsNjcuOTg0NCBBMi41LDIuNSAwIDAgMSA2MTcuODcsNzAuNDg0NCBMNjE3Ljg3LDIxOS41IEEyLjUsMi41IDAgMCAxIDYxNS4zNywyMjIgTDQwMC4zNywyMjIgQTIuNSwyLjUgMCAwIDEgMzk3Ljg3LDIxOS41IEwzOTcuODcsNDkuNSBBMi41LDIuNSAwIDAgMSA0MDAuMzcsNDcgIiBmaWxsPSJub25lIiBzdHlsZT0ic3Ryb2tlOiMwMDAwMDA7c3Ryb2tlLXdpZHRoOjEuNTsiLz48bGluZSBzdHlsZT0ic3Ryb2tlOiMwMDAwMDA7c3Ryb2tlLXdpZHRoOjEuNTsiIHgxPSIzOTcuODciIHgyPSI0OTQuODciIHkxPSI2Ny45ODQ0IiB5Mj0iNjcuOTg0NCIvPjx0ZXh0IGZpbGw9IiMwMDAwMDAiIGZvbnQtZmFtaWx5PSJzYW5zLXNlcmlmIiBmb250LXNpemU9IjE0IiBmb250LXdlaWdodD0iYm9sZCIgbGVuZ3RoQWRqdXN0PSJzcGFjaW5nIiB0ZXh0TGVuZ3RoPSI4NCIgeD0iNDAxLjg3IiB5PSI2Mi4yMzQ0Ij5MYWIgU2VydmljZXM8L3RleHQ+PC9nPjwhLS1jbHVzdGVyIE1hbmFnZW1lbnQgU2VydmljZXMtLT48ZyBpZD0iY2x1c3Rlcl9NYW5hZ2VtZW50IFNlcnZpY2VzIj48cGF0aCBkPSJNOTczLjM3LDM3MyBMMTEwOC4zNywzNzMgQTMuNzUsMy43NSAwIDAgMSAxMTEwLjg3LDM3NS41IEwxMTE3Ljg3LDM5My45ODQ0IEwxMjAyLjM3LDM5My45ODQ0IEEyLjUsMi41IDAgMCAxIDEyMDQuODcsMzk2LjQ4NDQgTDEyMDQuODcsNjI1LjUgQTIuNSwyLjUgMCAwIDEgMTIwMi4zNyw2MjggTDk3My4zNyw2MjggQTIuNSwyLjUgMCAwIDEgOTcwLjg3LDYyNS41IEw5NzAuODcsMzc1LjUgQTIuNSwyLjUgMCAwIDEgOTczLjM3LDM3MyAiIGZpbGw9Im5vbmUiIHN0eWxlPSJzdHJva2U6IzAwMDAwMDtzdHJva2Utd2lkdGg6MS41OyIvPjxsaW5lIHN0eWxlPSJzdHJva2U6IzAwMDAwMDtzdHJva2Utd2lkdGg6MS41OyIgeDE9Ijk3MC44NyIgeDI9IjExMTcuODciIHkxPSIzOTMuOTg0NCIgeTI9IjM5My45ODQ0Ii8+PHRleHQgZmlsbD0iIzAwMDAwMCIgZm9udC1mYW1pbHk9InNhbnMtc2VyaWYiIGZvbnQtc2l6ZT0iMTQiIGZvbnQtd2VpZ2h0PSJib2xkIiBsZW5ndGhBZGp1c3Q9InNwYWNpbmciIHRleHRMZW5ndGg9IjEzNCIgeD0iOTc0Ljg3IiB5PSIzODguMjM0NCI+TWFuYWdlbWVudCBTZXJ2aWNlczwvdGV4dD48L2c+PCEtLWNsdXN0ZXIgTnVyc2luZyBTZXJ2aWNlcy0tPjxnIGlkPSJjbHVzdGVyX051cnNpbmcgU2VydmljZXMiPjxwYXRoIGQ9Ik0zOTMuMzcsMTEyNiBMNTA2LjM3LDExMjYgQTMuNzUsMy43NSAwIDAgMSA1MDguODcsMTEyOC41IEw1MTUuODcsMTE0Ni45ODQ0IEw2MjIuMzcsMTE0Ni45ODQ0IEEyLjUsMi41IDAgMCAxIDYyNC44NywxMTQ5LjQ4NDQgTDYyNC44NywxMjk4LjUgQTIuNSwyLjUgMCAwIDEgNjIyLjM3LDEzMDEgTDM5My4zNywxMzAxIEEyLjUsMi41IDAgMCAxIDM5MC44NywxMjk4LjUgTDM5MC44NywxMTI4LjUgQTIuNSwyLjUgMCAwIDEgMzkzLjM3LDExMjYgIiBmaWxsPSJub25lIiBzdHlsZT0ic3Ryb2tlOiMwMDAwMDA7c3Ryb2tlLXdpZHRoOjEuNTsiLz48bGluZSBzdHlsZT0ic3Ryb2tlOiMwMDAwMDA7c3Ryb2tlLXdpZHRoOjEuNTsiIHgxPSIzOTAuODciIHgyPSI1MTUuODciIHkxPSIxMTQ2Ljk4NDQiIHkyPSIxMTQ2Ljk4NDQiLz48dGV4dCBmaWxsPSIjMDAwMDAwIiBmb250LWZhbWlseT0ic2Fucy1zZXJpZiIgZm9udC1zaXplPSIxNCIgZm9udC13ZWlnaHQ9ImJvbGQiIGxlbmd0aEFkanVzdD0ic3BhY2luZyIgdGV4dExlbmd0aD0iMTEyIiB4PSIzOTQuODciIHk9IjExNDEuMjM0NCI+TnVyc2luZyBTZXJ2aWNlczwvdGV4dD48L2c+PCEtLWNsdXN0ZXIgUmVjZXB0aW9uIFNlcnZpY2VzLS0+PGcgaWQ9ImNsdXN0ZXJfUmVjZXB0aW9uIFNlcnZpY2VzIj48cGF0aCBkPSJNMzk2LjM3LDY3MyBMNTIzLjM3LDY3MyBBMy43NSwzLjc1IDAgMCAxIDUyNS44Nyw2NzUuNSBMNTMyLjg3LDY5My45ODQ0IEw2MTkuMzcsNjkzLjk4NDQgQTIuNSwyLjUgMCAwIDEgNjIxLjg3LDY5Ni40ODQ0IEw2MjEuODcsODQ1LjUgQTIuNSwyLjUgMCAwIDEgNjE5LjM3LDg0OCBMMzk2LjM3LDg0OCBBMi41LDIuNSAwIDAgMSAzOTMuODcsODQ1LjUgTDM5My44Nyw2NzUuNSBBMi41LDIuNSAwIDAgMSAzOTYuMzcsNjczICIgZmlsbD0ibm9uZSIgc3R5bGU9InN0cm9rZTojMDAwMDAwO3N0cm9rZS13aWR0aDoxLjU7Ii8+PGxpbmUgc3R5bGU9InN0cm9rZTojMDAwMDAwO3N0cm9rZS13aWR0aDoxLjU7IiB4MT0iMzkzLjg3IiB4Mj0iNTMyLjg3IiB5MT0iNjkzLjk4NDQiIHkyPSI2OTMuOTg0NCIvPjx0ZXh0IGZpbGw9IiMwMDAwMDAiIGZvbnQtZmFtaWx5PSJzYW5zLXNlcmlmIiBmb250LXNpemU9IjE0IiBmb250LXdlaWdodD0iYm9sZCIgbGVuZ3RoQWRqdXN0PSJzcGFjaW5nIiB0ZXh0TGVuZ3RoPSIxMjYiIHg9IjM5Ny44NyIgeT0iNjg4LjIzNDQiPlJlY2VwdGlvbiBTZXJ2aWNlczwvdGV4dD48L2c+PCEtLWNsdXN0ZXIgU3lzdGVtIE9wZXJhdGlvbnMgU2VydmljZXMtLT48ZyBpZD0iY2x1c3Rlcl9TeXN0ZW0gT3BlcmF0aW9ucyBTZXJ2aWNlcyI+PHBhdGggZD0iTTY4My4zNywxNjcgTDg2Ny4zNywxNjcgQTMuNzUsMy43NSAwIDAgMSA4NjkuODcsMTY5LjUgTDg3Ni44NywxODcuOTg0NCBMOTQwLjM3LDE4Ny45ODQ0IEEyLjUsMi41IDAgMCAxIDk0Mi44NywxOTAuNDg0NCBMOTQyLjg3LDMzOS41IEEyLjUsMi41IDAgMCAxIDk0MC4zNywzNDIgTDY4My4zNywzNDIgQTIuNSwyLjUgMCAwIDEgNjgwLjg3LDMzOS41IEw2ODAuODcsMTY5LjUgQTIuNSwyLjUgMCAwIDEgNjgzLjM3LDE2NyAiIGZpbGw9Im5vbmUiIHN0eWxlPSJzdHJva2U6IzAwMDAwMDtzdHJva2Utd2lkdGg6MS41OyIvPjxsaW5lIHN0eWxlPSJzdHJva2U6IzAwMDAwMDtzdHJva2Utd2lkdGg6MS41OyIgeDE9IjY4MC44NyIgeDI9Ijg3Ni44NyIgeTE9IjE4Ny45ODQ0IiB5Mj0iMTg3Ljk4NDQiLz48dGV4dCBmaWxsPSIjMDAwMDAwIiBmb250LWZhbWlseT0ic2Fucy1zZXJpZiIgZm9udC1zaXplPSIxNCIgZm9udC13ZWlnaHQ9ImJvbGQiIGxlbmd0aEFkanVzdD0ic3BhY2luZyIgdGV4dExlbmd0aD0iMTgzIiB4PSI2ODQuODciIHk9IjE4Mi4yMzQ0Ij5TeXN0ZW0gT3BlcmF0aW9ucyBTZXJ2aWNlczwvdGV4dD48L2c+PCEtLWVudGl0eSBQQS0tPjxnIGlkPSJlbGVtX1BBIj48cmVjdCBmaWxsPSIjRjFGMUYxIiBoZWlnaHQ9IjQ0Ljk4NDQiIHJ4PSIyLjUiIHJ5PSIyLjUiIHN0eWxlPSJzdHJva2U6IzE4MTgxODtzdHJva2Utd2lkdGg6MC41OyIgd2lkdGg9IjExNyIgeD0iMTU2LjM3IiB5PSI3OTguNSIvPjxyZWN0IGZpbGw9IiNGMUYxRjEiIGhlaWdodD0iMTAiIHN0eWxlPSJzdHJva2U6IzE4MTgxODtzdHJva2Utd2lkdGg6MC41OyIgd2lkdGg9IjE1IiB4PSIyNTMuMzciIHk9IjgwMy41Ii8+PHJlY3QgZmlsbD0iI0YxRjFGMSIgaGVpZ2h0PSIyIiBzdHlsZT0ic3Ryb2tlOiMxODE4MTg7c3Ryb2tlLXdpZHRoOjAuNTsiIHdpZHRoPSI0IiB4PSIyNTEuMzciIHk9IjgwNS41Ii8+PHJlY3QgZmlsbD0iI0YxRjFGMSIgaGVpZ2h0PSIyIiBzdHlsZT0ic3Ryb2tlOiMxODE4MTg7c3Ryb2tlLXdpZHRoOjAuNTsiIHdpZHRoPSI0IiB4PSIyNTEuMzciIHk9IjgwOS41Ii8+PHRleHQgZmlsbD0iIzAwMDAwMCIgZm9udC1mYW1pbHk9InNhbnMtc2VyaWYiIGZvbnQtc2l6ZT0iMTQiIGxlbmd0aEFkanVzdD0ic3BhY2luZyIgdGV4dExlbmd0aD0iNzciIHg9IjE3MS4zNyIgeT0iODMxLjczNDQiPlBhdGllbnQgQXBwPC90ZXh0PjwvZz48IS0tZW50aXR5IERBLS0+PGcgaWQ9ImVsZW1fREEiPjxyZWN0IGZpbGw9IiNGMUYxRjEiIGhlaWdodD0iNDQuOTg0NCIgcng9IjIuNSIgcnk9IjIuNSIgc3R5bGU9InN0cm9rZTojMTgxODE4O3N0cm9rZS13aWR0aDowLjU7IiB3aWR0aD0iMjA4IiB4PSIxMTAuODciIHk9IjcxOC41Ii8+PHJlY3QgZmlsbD0iI0YxRjFGMSIgaGVpZ2h0PSIxMCIgc3R5bGU9InN0cm9rZTojMTgxODE4O3N0cm9rZS13aWR0aDowLjU7IiB3aWR0aD0iMTUiIHg9IjI5OC44NyIgeT0iNzIzLjUiLz48cmVjdCBmaWxsPSIjRjFGMUYxIiBoZWlnaHQ9IjIiIHN0eWxlPSJzdHJva2U6IzE4MTgxODtzdHJva2Utd2lkdGg6MC41OyIgd2lkdGg9IjQiIHg9IjI5Ni44NyIgeT0iNzI1LjUiLz48cmVjdCBmaWxsPSIjRjFGMUYxIiBoZWlnaHQ9IjIiIHN0eWxlPSJzdHJva2U6IzE4MTgxODtzdHJva2Utd2lkdGg6MC41OyIgd2lkdGg9IjQiIHg9IjI5Ni44NyIgeT0iNzI5LjUiLz48dGV4dCBmaWxsPSIjMDAwMDAwIiBmb250LWZhbWlseT0ic2Fucy1zZXJpZiIgZm9udC1zaXplPSIxNCIgbGVuZ3RoQWRqdXN0PSJzcGFjaW5nIiB0ZXh0TGVuZ3RoPSIxNjgiIHg9IjEyNS44NyIgeT0iNzUxLjczNDQiPkRvY3RvciBBcHAvV2ViIEludGVyZmFjZTwvdGV4dD48L2c+PCEtLWVudGl0eSBQUy0tPjxnIGlkPSJlbGVtX1BTIj48cmVjdCBmaWxsPSIjRjFGMUYxIiBoZWlnaHQ9IjQ0Ljk4NDQiIHJ4PSIyLjUiIHJ5PSIyLjUiIHN0eWxlPSJzdHJva2U6IzE4MTgxODtzdHJva2Utd2lkdGg6MC41OyIgd2lkdGg9IjE0NyIgeD0iMTQxLjM3IiB5PSI5ODUuNSIvPjxyZWN0IGZpbGw9IiNGMUYxRjEiIGhlaWdodD0iMTAiIHN0eWxlPSJzdHJva2U6IzE4MTgxODtzdHJva2Utd2lkdGg6MC41OyIgd2lkdGg9IjE1IiB4PSIyNjguMzciIHk9Ijk5MC41Ii8+PHJlY3QgZmlsbD0iI0YxRjFGMSIgaGVpZ2h0PSIyIiBzdHlsZT0ic3Ryb2tlOiMxODE4MTg7c3Ryb2tlLXdpZHRoOjAuNTsiIHdpZHRoPSI0IiB4PSIyNjYuMzciIHk9Ijk5Mi41Ii8+PHJlY3QgZmlsbD0iI0YxRjFGMSIgaGVpZ2h0PSIyIiBzdHlsZT0ic3Ryb2tlOiMxODE4MTg7c3Ryb2tlLXdpZHRoOjAuNTsiIHdpZHRoPSI0IiB4PSIyNjYuMzciIHk9Ijk5Ni41Ii8+PHRleHQgZmlsbD0iIzAwMDAwMCIgZm9udC1mYW1pbHk9InNhbnMtc2VyaWYiIGZvbnQtc2l6ZT0iMTQiIGxlbmd0aEFkanVzdD0ic3BhY2luZyIgdGV4dExlbmd0aD0iMTA3IiB4PSIxNTYuMzciIHk9IjEwMTguNzM0NCI+UGhhcm1hY3kgU3lzdGVtPC90ZXh0PjwvZz48IS0tZW50aXR5IExTLS0+PGcgaWQ9ImVsZW1fTFMiPjxyZWN0IGZpbGw9IiNGMUYxRjEiIGhlaWdodD0iNDQuOTg0NCIgcng9IjIuNSIgcnk9IjIuNSIgc3R5bGU9InN0cm9rZTojMTgxODE4O3N0cm9rZS13aWR0aDowLjU7IiB3aWR0aD0iMTg4IiB4PSIxMjAuODciIHk9IjQwMC41Ii8+PHJlY3QgZmlsbD0iI0YxRjFGMSIgaGVpZ2h0PSIxMCIgc3R5bGU9InN0cm9rZTojMTgxODE4O3N0cm9rZS13aWR0aDowLjU7IiB3aWR0aD0iMTUiIHg9IjI4OC44NyIgeT0iNDA1LjUiLz48cmVjdCBmaWxsPSIjRjFGMUYxIiBoZWlnaHQ9IjIiIHN0eWxlPSJzdHJva2U6IzE4MTgxODtzdHJva2Utd2lkdGg6MC41OyIgd2lkdGg9IjQiIHg9IjI4Ni44NyIgeT0iNDA3LjUiLz48cmVjdCBmaWxsPSIjRjFGMUYxIiBoZWlnaHQ9IjIiIHN0eWxlPSJzdHJva2U6IzE4MTgxODtzdHJva2Utd2lkdGg6MC41OyIgd2lkdGg9IjQiIHg9IjI4Ni44NyIgeT0iNDExLjUiLz48dGV4dCBmaWxsPSIjMDAwMDAwIiBmb250LWZhbWlseT0ic2Fucy1zZXJpZiIgZm9udC1zaXplPSIxNCIgbGVuZ3RoQWRqdXN0PSJzcGFjaW5nIiB0ZXh0TGVuZ3RoPSIxNDgiIHg9IjEzNS44NyIgeT0iNDMzLjczNDQiPkxhYiBUZWNobmljaWFuIFN5c3RlbTwvdGV4dD48L2c+PCEtLWVudGl0eSBNRC0tPjxnIGlkPSJlbGVtX01EIj48cmVjdCBmaWxsPSIjRjFGMUYxIiBoZWlnaHQ9IjQ0Ljk4NDQiIHJ4PSIyLjUiIHJ5PSIyLjUiIHN0eWxlPSJzdHJva2U6IzE4MTgxODtzdHJva2Utd2lkdGg6MC41OyIgd2lkdGg9IjE4MSIgeD0iNzIxLjM3IiB5PSI0ODYuNSIvPjxyZWN0IGZpbGw9IiNGMUYxRjEiIGhlaWdodD0iMTAiIHN0eWxlPSJzdHJva2U6IzE4MTgxODtzdHJva2Utd2lkdGg6MC41OyIgd2lkdGg9IjE1IiB4PSI4ODIuMzciIHk9IjQ5MS41Ii8+PHJlY3QgZmlsbD0iI0YxRjFGMSIgaGVpZ2h0PSIyIiBzdHlsZT0ic3Ryb2tlOiMxODE4MTg7c3Ryb2tlLXdpZHRoOjAuNTsiIHdpZHRoPSI0IiB4PSI4ODAuMzciIHk9IjQ5My41Ii8+PHJlY3QgZmlsbD0iI0YxRjFGMSIgaGVpZ2h0PSIyIiBzdHlsZT0ic3Ryb2tlOiMxODE4MTg7c3Ryb2tlLXdpZHRoOjAuNTsiIHdpZHRoPSI0IiB4PSI4ODAuMzciIHk9IjQ5Ny41Ii8+PHRleHQgZmlsbD0iIzAwMDAwMCIgZm9udC1mYW1pbHk9InNhbnMtc2VyaWYiIGZvbnQtc2l6ZT0iMTQiIGxlbmd0aEFkanVzdD0ic3BhY2luZyIgdGV4dExlbmd0aD0iMTQxIiB4PSI3MzYuMzciIHk9IjUxOS43MzQ0Ij5NYW5hZ2VtZW50IERhc2hib2FyZDwvdGV4dD48L2c+PCEtLWVudGl0eSBOUy0tPjxnIGlkPSJlbGVtX05TIj48cmVjdCBmaWxsPSIjRjFGMUYxIiBoZWlnaHQ9IjQ0Ljk4NDQiIHJ4PSIyLjUiIHJ5PSIyLjUiIHN0eWxlPSJzdHJva2U6IzE4MTgxODtzdHJva2Utd2lkdGg6MC41OyIgd2lkdGg9IjE0NSIgeD0iMTQyLjM3IiB5PSIxMTU5LjUiLz48cmVjdCBmaWxsPSIjRjFGMUYxIiBoZWlnaHQ9IjEwIiBzdHlsZT0ic3Ryb2tlOiMxODE4MTg7c3Ryb2tlLXdpZHRoOjAuNTsiIHdpZHRoPSIxNSIgeD0iMjY3LjM3IiB5PSIxMTY0LjUiLz48cmVjdCBmaWxsPSIjRjFGMUYxIiBoZWlnaHQ9IjIiIHN0eWxlPSJzdHJva2U6IzE4MTgxODtzdHJva2Utd2lkdGg6MC41OyIgd2lkdGg9IjQiIHg9IjI2NS4zNyIgeT0iMTE2Ni41Ii8+PHJlY3QgZmlsbD0iI0YxRjFGMSIgaGVpZ2h0PSIyIiBzdHlsZT0ic3Ryb2tlOiMxODE4MTg7c3Ryb2tlLXdpZHRoOjAuNTsiIHdpZHRoPSI0IiB4PSIyNjUuMzciIHk9IjExNzAuNSIvPjx0ZXh0IGZpbGw9IiMwMDAwMDAiIGZvbnQtZmFtaWx5PSJzYW5zLXNlcmlmIiBmb250LXNpemU9IjE0IiBsZW5ndGhBZGp1c3Q9InNwYWNpbmciIHRleHRMZW5ndGg9IjEwNSIgeD0iMTU3LjM3IiB5PSIxMTkyLjczNDQiPk51cnNpbmcgU3RhdGlvbjwvdGV4dD48L2c+PCEtLWVudGl0eSBSRC0tPjxnIGlkPSJlbGVtX1JEIj48cmVjdCBmaWxsPSIjRjFGMUYxIiBoZWlnaHQ9IjQ0Ljk4NDQiIHJ4PSIyLjUiIHJ5PSIyLjUiIHN0eWxlPSJzdHJva2U6IzE4MTgxODtzdHJva2Utd2lkdGg6MC41OyIgd2lkdGg9IjEzOCIgeD0iMTQ1Ljg3IiB5PSI4NzguNSIvPjxyZWN0IGZpbGw9IiNGMUYxRjEiIGhlaWdodD0iMTAiIHN0eWxlPSJzdHJva2U6IzE4MTgxODtzdHJva2Utd2lkdGg6MC41OyIgd2lkdGg9IjE1IiB4PSIyNjMuODciIHk9Ijg4My41Ii8+PHJlY3QgZmlsbD0iI0YxRjFGMSIgaGVpZ2h0PSIyIiBzdHlsZT0ic3Ryb2tlOiMxODE4MTg7c3Ryb2tlLXdpZHRoOjAuNTsiIHdpZHRoPSI0IiB4PSIyNjEuODciIHk9Ijg4NS41Ii8+PHJlY3QgZmlsbD0iI0YxRjFGMSIgaGVpZ2h0PSIyIiBzdHlsZT0ic3Ryb2tlOiMxODE4MTg7c3Ryb2tlLXdpZHRoOjAuNTsiIHdpZHRoPSI0IiB4PSIyNjEuODciIHk9Ijg4OS41Ii8+PHRleHQgZmlsbD0iIzAwMDAwMCIgZm9udC1mYW1pbHk9InNhbnMtc2VyaWYiIGZvbnQtc2l6ZT0iMTQiIGxlbmd0aEFkanVzdD0ic3BhY2luZyIgdGV4dExlbmd0aD0iOTgiIHg9IjE2MC44NyIgeT0iOTExLjczNDQiPlJlY2VwdGlvbiBEZXNrPC90ZXh0PjwvZz48IS0tZW50aXR5IFNBLS0+PGcgaWQ9ImVsZW1fU0EiPjxyZWN0IGZpbGw9IiNGMUYxRjEiIGhlaWdodD0iNDQuOTg0NCIgcng9IjIuNSIgcnk9IjIuNSIgc3R5bGU9InN0cm9rZTojMTgxODE4O3N0cm9rZS13aWR0aDowLjU7IiB3aWR0aD0iMTY4IiB4PSI0MjMuODciIHk9IjI0MC41Ii8+PHJlY3QgZmlsbD0iI0YxRjFGMSIgaGVpZ2h0PSIxMCIgc3R5bGU9InN0cm9rZTojMTgxODE4O3N0cm9rZS13aWR0aDowLjU7IiB3aWR0aD0iMTUiIHg9IjU3MS44NyIgeT0iMjQ1LjUiLz48cmVjdCBmaWxsPSIjRjFGMUYxIiBoZWlnaHQ9IjIiIHN0eWxlPSJzdHJva2U6IzE4MTgxODtzdHJva2Utd2lkdGg6MC41OyIgd2lkdGg9IjQiIHg9IjU2OS44NyIgeT0iMjQ3LjUiLz48cmVjdCBmaWxsPSIjRjFGMUYxIiBoZWlnaHQ9IjIiIHN0eWxlPSJzdHJva2U6IzE4MTgxODtzdHJva2Utd2lkdGg6MC41OyIgd2lkdGg9IjQiIHg9IjU2OS44NyIgeT0iMjUxLjUiLz48dGV4dCBmaWxsPSIjMDAwMDAwIiBmb250LWZhbWlseT0ic2Fucy1zZXJpZiIgZm9udC1zaXplPSIxNCIgbGVuZ3RoQWRqdXN0PSJzcGFjaW5nIiB0ZXh0TGVuZ3RoPSIxMjgiIHg9IjQzOC44NyIgeT0iMjczLjczNDQiPlN5c3RlbSBBZG1pbiBQYW5lbDwvdGV4dD48L2c+PCEtLWVudGl0eSBQREItLT48ZyBpZD0iZWxlbV9QREIiPjxwYXRoIGQ9Ik00NDEuODcsNjIzIEM0NDEuODcsNjEzIDUwNy44Nyw2MTMgNTA3Ljg3LDYxMyBDNTA3Ljg3LDYxMyA1NzMuODcsNjEzIDU3My44Nyw2MjMgTDU3My44Nyw2NDYuOTg0NCBDNTczLjg3LDY1Ni45ODQ0IDUwNy44Nyw2NTYuOTg0NCA1MDcuODcsNjU2Ljk4NDQgQzUwNy44Nyw2NTYuOTg0NCA0NDEuODcsNjU2Ljk4NDQgNDQxLjg3LDY0Ni45ODQ0IEw0NDEuODcsNjIzICIgZmlsbD0iI0YxRjFGMSIgc3R5bGU9InN0cm9rZTojMTgxODE4O3N0cm9rZS13aWR0aDowLjU7Ii8+PHBhdGggZD0iTTQ0MS44Nyw2MjMgQzQ0MS44Nyw2MzMgNTA3Ljg3LDYzMyA1MDcuODcsNjMzIEM1MDcuODcsNjMzIDU3My44Nyw2MzMgNTczLjg3LDYyMyAiIGZpbGw9Im5vbmUiIHN0eWxlPSJzdHJva2U6IzE4MTgxODtzdHJva2Utd2lkdGg6MC41OyIvPjx0ZXh0IGZpbGw9IiMwMDAwMDAiIGZvbnQtZmFtaWx5PSJzYW5zLXNlcmlmIiBmb250LXNpemU9IjE0IiBsZW5ndGhBZGp1c3Q9InNwYWNpbmciIHRleHRMZW5ndGg9IjExMiIgeD0iNDUxLjg3IiB5PSI2NTAuMjM0NCI+UGF0aWVudCBEYXRhYmFzZTwvdGV4dD48L2c+PCEtLWVudGl0eSBMREItLT48ZyBpZD0iZWxlbV9MREIiPjxwYXRoIGQ9Ik0xNDUuMzcsNTcwIEMxNDUuMzcsNTYwIDIxNC44Nyw1NjAgMjE0Ljg3LDU2MCBDMjE0Ljg3LDU2MCAyODQuMzcsNTYwIDI4NC4zNyw1NzAgTDI4NC4zNyw1OTMuOTg0NCBDMjg0LjM3LDYwMy45ODQ0IDIxNC44Nyw2MDMuOTg0NCAyMTQuODcsNjAzLjk4NDQgQzIxNC44Nyw2MDMuOTg0NCAxNDUuMzcsNjAzLjk4NDQgMTQ1LjM3LDU5My45ODQ0IEwxNDUuMzcsNTcwICIgZmlsbD0iI0YxRjFGMSIgc3R5bGU9InN0cm9rZTojMTgxODE4O3N0cm9rZS13aWR0aDowLjU7Ii8+PHBhdGggZD0iTTE0NS4zNyw1NzAgQzE0NS4zNyw1ODAgMjE0Ljg3LDU4MCAyMTQuODcsNTgwIEMyMTQuODcsNTgwIDI4NC4zNyw1ODAgMjg0LjM3LDU3MCAiIGZpbGw9Im5vbmUiIHN0eWxlPSJzdHJva2U6IzE4MTgxODtzdHJva2Utd2lkdGg6MC41OyIvPjx0ZXh0IGZpbGw9IiMwMDAwMDAiIGZvbnQtZmFtaWx5PSJzYW5zLXNlcmlmIiBmb250LXNpemU9IjE0IiBsZW5ndGhBZGp1c3Q9InNwYWNpbmciIHRleHRMZW5ndGg9IjExOSIgeD0iMTU1LjM3IiB5PSI1OTcuMjM0NCI+TGFiIFRlc3QgRGF0YWJhc2U8L3RleHQ+PC9nPjwhLS1lbnRpdHkgTURCLS0+PGcgaWQ9ImVsZW1fTURCIj48cGF0aCBkPSJNNDMxLjM3LDEwNzYgQzQzMS4zNywxMDY2IDUwNy44NywxMDY2IDUwNy44NywxMDY2IEM1MDcuODcsMTA2NiA1ODQuMzcsMTA2NiA1ODQuMzcsMTA3NiBMNTg0LjM3LDEwOTkuOTg0NCBDNTg0LjM3LDExMDkuOTg0NCA1MDcuODcsMTEwOS45ODQ0IDUwNy44NywxMTA5Ljk4NDQgQzUwNy44NywxMTA5Ljk4NDQgNDMxLjM3LDExMDkuOTg0NCA0MzEuMzcsMTA5OS45ODQ0IEw0MzEuMzcsMTA3NiAiIGZpbGw9IiNGMUYxRjEiIHN0eWxlPSJzdHJva2U6IzE4MTgxODtzdHJva2Utd2lkdGg6MC41OyIvPjxwYXRoIGQ9Ik00MzEuMzcsMTA3NiBDNDMxLjM3LDEwODYgNTA3Ljg3LDEwODYgNTA3Ljg3LDEwODYgQzUwNy44NywxMDg2IDU4NC4zNywxMDg2IDU4NC4zNywxMDc2ICIgZmlsbD0ibm9uZSIgc3R5bGU9InN0cm9rZTojMTgxODE4O3N0cm9rZS13aWR0aDowLjU7Ii8+PHRleHQgZmlsbD0iIzAwMDAwMCIgZm9udC1mYW1pbHk9InNhbnMtc2VyaWYiIGZvbnQtc2l6ZT0iMTQiIGxlbmd0aEFkanVzdD0ic3BhY2luZyIgdGV4dExlbmd0aD0iMTMzIiB4PSI0NDEuMzciIHk9IjExMDMuMjM0NCI+TWVkaWNhdGlvbiBEYXRhYmFzZTwvdGV4dD48L2c+PCEtLWVudGl0eSBTREItLT48ZyBpZD0iZWxlbV9TREIiPjxwYXRoIGQ9Ik0xNTUuODcsNjQ5IEMxNTUuODcsNjM5IDIxNC44Nyw2MzkgMjE0Ljg3LDYzOSBDMjE0Ljg3LDYzOSAyNzMuODcsNjM5IDI3My44Nyw2NDkgTDI3My44Nyw2NzIuOTg0NCBDMjczLjg3LDY4Mi45ODQ0IDIxNC44Nyw2ODIuOTg0NCAyMTQuODcsNjgyLjk4NDQgQzIxNC44Nyw2ODIuOTg0NCAxNTUuODcsNjgyLjk4NDQgMTU1Ljg3LDY3Mi45ODQ0IEwxNTUuODcsNjQ5ICIgZmlsbD0iI0YxRjFGMSIgc3R5bGU9InN0cm9rZTojMTgxODE4O3N0cm9rZS13aWR0aDowLjU7Ii8+PHBhdGggZD0iTTE1NS44Nyw2NDkgQzE1NS44Nyw2NTkgMjE0Ljg3LDY1OSAyMTQuODcsNjU5IEMyMTQuODcsNjU5IDI3My44Nyw2NTkgMjczLjg3LDY0OSAiIGZpbGw9Im5vbmUiIHN0eWxlPSJzdHJva2U6IzE4MTgxODtzdHJva2Utd2lkdGg6MC41OyIvPjx0ZXh0IGZpbGw9IiMwMDAwMDAiIGZvbnQtZmFtaWx5PSJzYW5zLXNlcmlmIiBmb250LXNpemU9IjE0IiBsZW5ndGhBZGp1c3Q9InNwYWNpbmciIHRleHRMZW5ndGg9Ijk4IiB4PSIxNjUuODciIHk9IjY3Ni4yMzQ0Ij5TdGFmZiBEYXRhYmFzZTwvdGV4dD48L2c+PCEtLWVudGl0eSBBREItLT48ZyBpZD0iZWxlbV9BREIiPjxwYXRoIGQ9Ik0xMzQuMzcsNDkxIEMxMzQuMzcsNDgxIDIxNC44Nyw0ODEgMjE0Ljg3LDQ4MSBDMjE0Ljg3LDQ4MSAyOTUuMzcsNDgxIDI5NS4zNyw0OTEgTDI5NS4zNyw1MTQuOTg0NCBDMjk1LjM3LDUyNC45ODQ0IDIxNC44Nyw1MjQuOTg0NCAyMTQuODcsNTI0Ljk4NDQgQzIxNC44Nyw1MjQuOTg0NCAxMzQuMzcsNTI0Ljk4NDQgMTM0LjM3LDUxNC45ODQ0IEwxMzQuMzcsNDkxICIgZmlsbD0iI0YxRjFGMSIgc3R5bGU9InN0cm9rZTojMTgxODE4O3N0cm9rZS13aWR0aDowLjU7Ii8+PHBhdGggZD0iTTEzNC4zNyw0OTEgQzEzNC4zNyw1MDEgMjE0Ljg3LDUwMSAyMTQuODcsNTAxIEMyMTQuODcsNTAxIDI5NS4zNyw1MDEgMjk1LjM3LDQ5MSAiIGZpbGw9Im5vbmUiIHN0eWxlPSJzdHJva2U6IzE4MTgxODtzdHJva2Utd2lkdGg6MC41OyIvPjx0ZXh0IGZpbGw9IiMwMDAwMDAiIGZvbnQtZmFtaWx5PSJzYW5zLXNlcmlmIiBmb250LXNpemU9IjE0IiBsZW5ndGhBZGp1c3Q9InNwYWNpbmciIHRleHRMZW5ndGg9IjE0MSIgeD0iMTQ0LjM3IiB5PSI1MTguMjM0NCI+QXBwb2ludG1lbnQgRGF0YWJhc2U8L3RleHQ+PC9nPjwhLS1lbnRpdHkgUFItLT48ZyBpZD0iZWxlbV9QUiI+PHJlY3QgZmlsbD0iI0YxRjFGMSIgaGVpZ2h0PSI0NC45ODQ0IiByeD0iMi41IiByeT0iMi41IiBzdHlsZT0ic3Ryb2tlOiMxODE4MTg7c3Ryb2tlLXdpZHRoOjAuNTsiIHdpZHRoPSIxODAiIHg9IjEyNC44NyIgeT0iMjQwLjUiLz48cmVjdCBmaWxsPSIjRjFGMUYxIiBoZWlnaHQ9IjEwIiBzdHlsZT0ic3Ryb2tlOiMxODE4MTg7c3Ryb2tlLXdpZHRoOjAuNTsiIHdpZHRoPSIxNSIgeD0iMjg0Ljg3IiB5PSIyNDUuNSIvPjxyZWN0IGZpbGw9IiNGMUYxRjEiIGhlaWdodD0iMiIgc3R5bGU9InN0cm9rZTojMTgxODE4O3N0cm9rZS13aWR0aDowLjU7IiB3aWR0aD0iNCIgeD0iMjgyLjg3IiB5PSIyNDcuNSIvPjxyZWN0IGZpbGw9IiNGMUYxRjEiIGhlaWdodD0iMiIgc3R5bGU9InN0cm9rZTojMTgxODE4O3N0cm9rZS13aWR0aDowLjU7IiB3aWR0aD0iNCIgeD0iMjgyLjg3IiB5PSIyNTEuNSIvPjx0ZXh0IGZpbGw9IiMwMDAwMDAiIGZvbnQtZmFtaWx5PSJzYW5zLXNlcmlmIiBmb250LXNpemU9IjE0IiBsZW5ndGhBZGp1c3Q9InNwYWNpbmciIHRleHRMZW5ndGg9IjE0MCIgeD0iMTM5Ljg3IiB5PSIyNzMuNzM0NCI+UGF0aWVudCBSZWdpc3RyYXRpb248L3RleHQ+PC9nPjwhLS1lbnRpdHkgQVMtLT48ZyBpZD0iZWxlbV9BUyI+PHJlY3QgZmlsbD0iI0YxRjFGMSIgaGVpZ2h0PSI0NC45ODQ0IiByeD0iMi41IiByeT0iMi41IiBzdHlsZT0ic3Ryb2tlOiMxODE4MTg7c3Ryb2tlLXdpZHRoOjAuNTsiIHdpZHRoPSIxOTUiIHg9IjExNy4zNyIgeT0iMzIwLjUiLz48cmVjdCBmaWxsPSIjRjFGMUYxIiBoZWlnaHQ9IjEwIiBzdHlsZT0ic3Ryb2tlOiMxODE4MTg7c3Ryb2tlLXdpZHRoOjAuNTsiIHdpZHRoPSIxNSIgeD0iMjkyLjM3IiB5PSIzMjUuNSIvPjxyZWN0IGZpbGw9IiNGMUYxRjEiIGhlaWdodD0iMiIgc3R5bGU9InN0cm9rZTojMTgxODE4O3N0cm9rZS13aWR0aDowLjU7IiB3aWR0aD0iNCIgeD0iMjkwLjM3IiB5PSIzMjcuNSIvPjxyZWN0IGZpbGw9IiNGMUYxRjEiIGhlaWdodD0iMiIgc3R5bGU9InN0cm9rZTojMTgxODE4O3N0cm9rZS13aWR0aDowLjU7IiB3aWR0aD0iNCIgeD0iMjkwLjM3IiB5PSIzMzEuNSIvPjx0ZXh0IGZpbGw9IiMwMDAwMDAiIGZvbnQtZmFtaWx5PSJzYW5zLXNlcmlmIiBmb250LXNpemU9IjE0IiBsZW5ndGhBZGp1c3Q9InNwYWNpbmciIHRleHRMZW5ndGg9IjE1NSIgeD0iMTMyLjM3IiB5PSIzNTMuNzM0NCI+QXBwb2ludG1lbnQgU2NoZWR1bGluZzwvdGV4dD48L2c+PCEtLWVudGl0eSBNUkEtLT48ZyBpZD0iZWxlbV9NUkEiPjxyZWN0IGZpbGw9IiNGMUYxRjEiIGhlaWdodD0iNDQuOTg0NCIgcng9IjIuNSIgcnk9IjIuNSIgc3R5bGU9InN0cm9rZTojMTgxODE4O3N0cm9rZS13aWR0aDowLjU7IiB3aWR0aD0iMTg3IiB4PSIxMjEuMzciIHk9IjgwLjUiLz48cmVjdCBmaWxsPSIjRjFGMUYxIiBoZWlnaHQ9IjEwIiBzdHlsZT0ic3Ryb2tlOiMxODE4MTg7c3Ryb2tlLXdpZHRoOjAuNTsiIHdpZHRoPSIxNSIgeD0iMjg4LjM3IiB5PSI4NS41Ii8+PHJlY3QgZmlsbD0iI0YxRjFGMSIgaGVpZ2h0PSIyIiBzdHlsZT0ic3Ryb2tlOiMxODE4MTg7c3Ryb2tlLXdpZHRoOjAuNTsiIHdpZHRoPSI0IiB4PSIyODYuMzciIHk9Ijg3LjUiLz48cmVjdCBmaWxsPSIjRjFGMUYxIiBoZWlnaHQ9IjIiIHN0eWxlPSJzdHJva2U6IzE4MTgxODtzdHJva2Utd2lkdGg6MC41OyIgd2lkdGg9IjQiIHg9IjI4Ni4zNyIgeT0iOTEuNSIvPjx0ZXh0IGZpbGw9IiMwMDAwMDAiIGZvbnQtZmFtaWx5PSJzYW5zLXNlcmlmIiBmb250LXNpemU9IjE0IiBsZW5ndGhBZGp1c3Q9InNwYWNpbmciIHRleHRMZW5ndGg9IjE0NyIgeD0iMTM2LjM3IiB5PSIxMTMuNzM0NCI+TWVkaWNhbCBSZWNvcmQgQWNjZXNzPC90ZXh0PjwvZz48IS0tZW50aXR5IFBQLS0+PGcgaWQ9ImVsZW1fUFAiPjxyZWN0IGZpbGw9IiNGMUYxRjEiIGhlaWdodD0iNDQuOTg0NCIgcng9IjIuNSIgcnk9IjIuNSIgc3R5bGU9InN0cm9rZTojMTgxODE4O3N0cm9rZS13aWR0aDowLjU7IiB3aWR0aD0iMTY3IiB4PSIxMzEuMzciIHk9IjE2MC41Ii8+PHJlY3QgZmlsbD0iI0YxRjFGMSIgaGVpZ2h0PSIxMCIgc3R5bGU9InN0cm9rZTojMTgxODE4O3N0cm9rZS13aWR0aDowLjU7IiB3aWR0aD0iMTUiIHg9IjI3OC4zNyIgeT0iMTY1LjUiLz48cmVjdCBmaWxsPSIjRjFGMUYxIiBoZWlnaHQ9IjIiIHN0eWxlPSJzdHJva2U6IzE4MTgxODtzdHJva2Utd2lkdGg6MC41OyIgd2lkdGg9IjQiIHg9IjI3Ni4zNyIgeT0iMTY3LjUiLz48cmVjdCBmaWxsPSIjRjFGMUYxIiBoZWlnaHQ9IjIiIHN0eWxlPSJzdHJva2U6IzE4MTgxODtzdHJva2Utd2lkdGg6MC41OyIgd2lkdGg9IjQiIHg9IjI3Ni4zNyIgeT0iMTcxLjUiLz48dGV4dCBmaWxsPSIjMDAwMDAwIiBmb250LWZhbWlseT0ic2Fucy1zZXJpZiIgZm9udC1zaXplPSIxNCIgbGVuZ3RoQWRqdXN0PSJzcGFjaW5nIiB0ZXh0TGVuZ3RoPSIxMjciIHg9IjE0Ni4zNyIgeT0iMTkzLjczNDQiPlBheW1lbnQgUHJvY2Vzc2luZzwvdGV4dD48L2c+PCEtLWVudGl0eSBQUk0tLT48ZyBpZD0iZWxlbV9QUk0iPjxyZWN0IGZpbGw9IiNGMUYxRjEiIGhlaWdodD0iNDQuOTg0NCIgcng9IjIuNSIgcnk9IjIuNSIgc3R5bGU9InN0cm9rZTojMTgxODE4O3N0cm9rZS13aWR0aDowLjU7IiB3aWR0aD0iMjE2IiB4PSIzOTkuODciIHk9IjM3Mi41Ii8+PHJlY3QgZmlsbD0iI0YxRjFGMSIgaGVpZ2h0PSIxMCIgc3R5bGU9InN0cm9rZTojMTgxODE4O3N0cm9rZS13aWR0aDowLjU7IiB3aWR0aD0iMTUiIHg9IjU5NS44NyIgeT0iMzc3LjUiLz48cmVjdCBmaWxsPSIjRjFGMUYxIiBoZWlnaHQ9IjIiIHN0eWxlPSJzdHJva2U6IzE4MTgxODtzdHJva2Utd2lkdGg6MC41OyIgd2lkdGg9IjQiIHg9IjU5My44NyIgeT0iMzc5LjUiLz48cmVjdCBmaWxsPSIjRjFGMUYxIiBoZWlnaHQ9IjIiIHN0eWxlPSJzdHJva2U6IzE4MTgxODtzdHJva2Utd2lkdGg6MC41OyIgd2lkdGg9IjQiIHg9IjU5My44NyIgeT0iMzgzLjUiLz48dGV4dCBmaWxsPSIjMDAwMDAwIiBmb250LWZhbWlseT0ic2Fucy1zZXJpZiIgZm9udC1zaXplPSIxNCIgbGVuZ3RoQWRqdXN0PSJzcGFjaW5nIiB0ZXh0TGVuZ3RoPSIxNzYiIHg9IjQxNC44NyIgeT0iNDA1LjczNDQiPlBhdGllbnQgUmVjb3JkIE1hbmFnZW1lbnQ8L3RleHQ+PC9nPjwhLS1lbnRpdHkgRFQtLT48ZyBpZD0iZWxlbV9EVCI+PHJlY3QgZmlsbD0iI0YxRjFGMSIgaGVpZ2h0PSI0NC45ODQ0IiByeD0iMi41IiByeT0iMi41IiBzdHlsZT0ic3Ryb2tlOiMxODE4MTg7c3Ryb2tlLXdpZHRoOjAuNTsiIHdpZHRoPSIxNTIiIHg9IjQzMS44NyIgeT0iNDUyLjUiLz48cmVjdCBmaWxsPSIjRjFGMUYxIiBoZWlnaHQ9IjEwIiBzdHlsZT0ic3Ryb2tlOiMxODE4MTg7c3Ryb2tlLXdpZHRoOjAuNTsiIHdpZHRoPSIxNSIgeD0iNTYzLjg3IiB5PSI0NTcuNSIvPjxyZWN0IGZpbGw9IiNGMUYxRjEiIGhlaWdodD0iMiIgc3R5bGU9InN0cm9rZTojMTgxODE4O3N0cm9rZS13aWR0aDowLjU7IiB3aWR0aD0iNCIgeD0iNTYxLjg3IiB5PSI0NTkuNSIvPjxyZWN0IGZpbGw9IiNGMUYxRjEiIGhlaWdodD0iMiIgc3R5bGU9InN0cm9rZTojMTgxODE4O3N0cm9rZS13aWR0aDowLjU7IiB3aWR0aD0iNCIgeD0iNTYxLjg3IiB5PSI0NjMuNSIvPjx0ZXh0IGZpbGw9IiMwMDAwMDAiIGZvbnQtZmFtaWx5PSJzYW5zLXNlcmlmIiBmb250LXNpemU9IjE0IiBsZW5ndGhBZGp1c3Q9InNwYWNpbmciIHRleHRMZW5ndGg9IjExMiIgeD0iNDQ2Ljg3IiB5PSI0ODUuNzM0NCI+RGlhZ25vc3RpYyBUb29sczwvdGV4dD48L2c+PCEtLWVudGl0eSBUUC0tPjxnIGlkPSJlbGVtX1RQIj48cmVjdCBmaWxsPSIjRjFGMUYxIiBoZWlnaHQ9IjQ0Ljk4NDQiIHJ4PSIyLjUiIHJ5PSIyLjUiIHN0eWxlPSJzdHJva2U6IzE4MTgxODtzdHJva2Utd2lkdGg6MC41OyIgd2lkdGg9IjE4OCIgeD0iNDEzLjg3IiB5PSI1MzIuNSIvPjxyZWN0IGZpbGw9IiNGMUYxRjEiIGhlaWdodD0iMTAiIHN0eWxlPSJzdHJva2U6IzE4MTgxODtzdHJva2Utd2lkdGg6MC41OyIgd2lkdGg9IjE1IiB4PSI1ODEuODciIHk9IjUzNy41Ii8+PHJlY3QgZmlsbD0iI0YxRjFGMSIgaGVpZ2h0PSIyIiBzdHlsZT0ic3Ryb2tlOiMxODE4MTg7c3Ryb2tlLXdpZHRoOjAuNTsiIHdpZHRoPSI0IiB4PSI1NzkuODciIHk9IjUzOS41Ii8+PHJlY3QgZmlsbD0iI0YxRjFGMSIgaGVpZ2h0PSIyIiBzdHlsZT0ic3Ryb2tlOiMxODE4MTg7c3Ryb2tlLXdpZHRoOjAuNTsiIHdpZHRoPSI0IiB4PSI1NzkuODciIHk9IjU0My41Ii8+PHRleHQgZmlsbD0iIzAwMDAwMCIgZm9udC1mYW1pbHk9InNhbnMtc2VyaWYiIGZvbnQtc2l6ZT0iMTQiIGxlbmd0aEFkanVzdD0ic3BhY2luZyIgdGV4dExlbmd0aD0iMTQ4IiB4PSI0MjguODciIHk9IjU2NS43MzQ0Ij5UcmVhdG1lbnQgUHJlc2NyaWJpbmc8L3RleHQ+PC9nPjwhLS1lbnRpdHkgUFAyLS0+PGcgaWQ9ImVsZW1fUFAyIj48cmVjdCBmaWxsPSIjRjFGMUYxIiBoZWlnaHQ9IjQ0Ljk4NDQiIHJ4PSIyLjUiIHJ5PSIyLjUiIHN0eWxlPSJzdHJva2U6IzE4MTgxODtzdHJva2Utd2lkdGg6MC41OyIgd2lkdGg9IjIwMSIgeD0iNDA3LjM3IiB5PSI5MDUuNSIvPjxyZWN0IGZpbGw9IiNGMUYxRjEiIGhlaWdodD0iMTAiIHN0eWxlPSJzdHJva2U6IzE4MTgxODtzdHJva2Utd2lkdGg6MC41OyIgd2lkdGg9IjE1IiB4PSI1ODguMzciIHk9IjkxMC41Ii8+PHJlY3QgZmlsbD0iI0YxRjFGMSIgaGVpZ2h0PSIyIiBzdHlsZT0ic3Ryb2tlOiMxODE4MTg7c3Ryb2tlLXdpZHRoOjAuNTsiIHdpZHRoPSI0IiB4PSI1ODYuMzciIHk9IjkxMi41Ii8+PHJlY3QgZmlsbD0iI0YxRjFGMSIgaGVpZ2h0PSIyIiBzdHlsZT0ic3Ryb2tlOiMxODE4MTg7c3Ryb2tlLXdpZHRoOjAuNTsiIHdpZHRoPSI0IiB4PSI1ODYuMzciIHk9IjkxNi41Ii8+PHRleHQgZmlsbD0iIzAwMDAwMCIgZm9udC1mYW1pbHk9InNhbnMtc2VyaWYiIGZvbnQtc2l6ZT0iMTQiIGxlbmd0aEFkanVzdD0ic3BhY2luZyIgdGV4dExlbmd0aD0iMTYxIiB4PSI0MjIuMzciIHk9IjkzOC43MzQ0Ij5QcmVzY3JpcHRpb24gUHJvY2Vzc2luZzwvdGV4dD48L2c+PCEtLWVudGl0eSBNSU0tLT48ZyBpZD0iZWxlbV9NSU0iPjxyZWN0IGZpbGw9IiNGMUYxRjEiIGhlaWdodD0iNDQuOTg0NCIgcng9IjIuNSIgcnk9IjIuNSIgc3R5bGU9InN0cm9rZTojMTgxODE4O3N0cm9rZS13aWR0aDowLjU7IiB3aWR0aD0iMjU4IiB4PSIzNzguODciIHk9Ijk4NS41Ii8+PHJlY3QgZmlsbD0iI0YxRjFGMSIgaGVpZ2h0PSIxMCIgc3R5bGU9InN0cm9rZTojMTgxODE4O3N0cm9rZS13aWR0aDowLjU7IiB3aWR0aD0iMTUiIHg9IjYxNi44NyIgeT0iOTkwLjUiLz48cmVjdCBmaWxsPSIjRjFGMUYxIiBoZWlnaHQ9IjIiIHN0eWxlPSJzdHJva2U6IzE4MTgxODtzdHJva2Utd2lkdGg6MC41OyIgd2lkdGg9IjQiIHg9IjYxNC44NyIgeT0iOTkyLjUiLz48cmVjdCBmaWxsPSIjRjFGMUYxIiBoZWlnaHQ9IjIiIHN0eWxlPSJzdHJva2U6IzE4MTgxODtzdHJva2Utd2lkdGg6MC41OyIgd2lkdGg9IjQiIHg9IjYxNC44NyIgeT0iOTk2LjUiLz48dGV4dCBmaWxsPSIjMDAwMDAwIiBmb250LWZhbWlseT0ic2Fucy1zZXJpZiIgZm9udC1zaXplPSIxNCIgbGVuZ3RoQWRqdXN0PSJzcGFjaW5nIiB0ZXh0TGVuZ3RoPSIyMTgiIHg9IjM5My44NyIgeT0iMTAxOC43MzQ0Ij5NZWRpY2F0aW9uIEludmVudG9yeSBNYW5hZ2VtZW50PC90ZXh0PjwvZz48IS0tZW50aXR5IFRPTS0tPjxnIGlkPSJlbGVtX1RPTSI+PHJlY3QgZmlsbD0iI0YxRjFGMSIgaGVpZ2h0PSI0NC45ODQ0IiByeD0iMi41IiByeT0iMi41IiBzdHlsZT0ic3Ryb2tlOiMxODE4MTg7c3Ryb2tlLXdpZHRoOjAuNTsiIHdpZHRoPSIxODgiIHg9IjQxMy44NyIgeT0iODAuNSIvPjxyZWN0IGZpbGw9IiNGMUYxRjEiIGhlaWdodD0iMTAiIHN0eWxlPSJzdHJva2U6IzE4MTgxODtzdHJva2Utd2lkdGg6MC41OyIgd2lkdGg9IjE1IiB4PSI1ODEuODciIHk9Ijg1LjUiLz48cmVjdCBmaWxsPSIjRjFGMUYxIiBoZWlnaHQ9IjIiIHN0eWxlPSJzdHJva2U6IzE4MTgxODtzdHJva2Utd2lkdGg6MC41OyIgd2lkdGg9IjQiIHg9IjU3OS44NyIgeT0iODcuNSIvPjxyZWN0IGZpbGw9IiNGMUYxRjEiIGhlaWdodD0iMiIgc3R5bGU9InN0cm9rZTojMTgxODE4O3N0cm9rZS13aWR0aDowLjU7IiB3aWR0aD0iNCIgeD0iNTc5Ljg3IiB5PSI5MS41Ii8+PHRleHQgZmlsbD0iIzAwMDAwMCIgZm9udC1mYW1pbHk9InNhbnMtc2VyaWYiIGZvbnQtc2l6ZT0iMTQiIGxlbmd0aEFkanVzdD0ic3BhY2luZyIgdGV4dExlbmd0aD0iMTQ4IiB4PSI0MjguODciIHk9IjExMy43MzQ0Ij5UZXN0IE9yZGVyIE1hbmFnZW1lbnQ8L3RleHQ+PC9nPjwhLS1lbnRpdHkgUkUtLT48ZyBpZD0iZWxlbV9SRSI+PHJlY3QgZmlsbD0iI0YxRjFGMSIgaGVpZ2h0PSI0NC45ODQ0IiByeD0iMi41IiByeT0iMi41IiBzdHlsZT0ic3Ryb2tlOiMxODE4MTg7c3Ryb2tlLXdpZHRoOjAuNTsiIHdpZHRoPSIxMjQiIHg9IjQ0NS44NyIgeT0iMTYwLjUiLz48cmVjdCBmaWxsPSIjRjFGMUYxIiBoZWlnaHQ9IjEwIiBzdHlsZT0ic3Ryb2tlOiMxODE4MTg7c3Ryb2tlLXdpZHRoOjAuNTsiIHdpZHRoPSIxNSIgeD0iNTQ5Ljg3IiB5PSIxNjUuNSIvPjxyZWN0IGZpbGw9IiNGMUYxRjEiIGhlaWdodD0iMiIgc3R5bGU9InN0cm9rZTojMTgxODE4O3N0cm9rZS13aWR0aDowLjU7IiB3aWR0aD0iNCIgeD0iNTQ3Ljg3IiB5PSIxNjcuNSIvPjxyZWN0IGZpbGw9IiNGMUYxRjEiIGhlaWdodD0iMiIgc3R5bGU9InN0cm9rZTojMTgxODE4O3N0cm9rZS13aWR0aDowLjU7IiB3aWR0aD0iNCIgeD0iNTQ3Ljg3IiB5PSIxNzEuNSIvPjx0ZXh0IGZpbGw9IiMwMDAwMDAiIGZvbnQtZmFtaWx5PSJzYW5zLXNlcmlmIiBmb250LXNpemU9IjE0IiBsZW5ndGhBZGp1c3Q9InNwYWNpbmciIHRleHRMZW5ndGg9Ijg0IiB4PSI0NjAuODciIHk9IjE5My43MzQ0Ij5SZXN1bHQgRW50cnk8L3RleHQ+PC9nPjwhLS1lbnRpdHkgU00tLT48ZyBpZD0iZWxlbV9TTSI+PHJlY3QgZmlsbD0iI0YxRjFGMSIgaGVpZ2h0PSI0NC45ODQ0IiByeD0iMi41IiByeT0iMi41IiBzdHlsZT0ic3Ryb2tlOiMxODE4MTg7c3Ryb2tlLXdpZHRoOjAuNTsiIHdpZHRoPSIxNTMiIHg9IjEwMTEuMzciIHk9IjQwNi41Ii8+PHJlY3QgZmlsbD0iI0YxRjFGMSIgaGVpZ2h0PSIxMCIgc3R5bGU9InN0cm9rZTojMTgxODE4O3N0cm9rZS13aWR0aDowLjU7IiB3aWR0aD0iMTUiIHg9IjExNDQuMzciIHk9IjQxMS41Ii8+PHJlY3QgZmlsbD0iI0YxRjFGMSIgaGVpZ2h0PSIyIiBzdHlsZT0ic3Ryb2tlOiMxODE4MTg7c3Ryb2tlLXdpZHRoOjAuNTsiIHdpZHRoPSI0IiB4PSIxMTQyLjM3IiB5PSI0MTMuNSIvPjxyZWN0IGZpbGw9IiNGMUYxRjEiIGhlaWdodD0iMiIgc3R5bGU9InN0cm9rZTojMTgxODE4O3N0cm9rZS13aWR0aDowLjU7IiB3aWR0aD0iNCIgeD0iMTE0Mi4zNyIgeT0iNDE3LjUiLz48dGV4dCBmaWxsPSIjMDAwMDAwIiBmb250LWZhbWlseT0ic2Fucy1zZXJpZiIgZm9udC1zaXplPSIxNCIgbGVuZ3RoQWRqdXN0PSJzcGFjaW5nIiB0ZXh0TGVuZ3RoPSIxMTMiIHg9IjEwMjYuMzciIHk9IjQzOS43MzQ0Ij5TdGFmZiBNYW5hZ2VtZW50PC90ZXh0PjwvZz48IS0tZW50aXR5IFVBTS0tPjxnIGlkPSJlbGVtX1VBTSI+PHJlY3QgZmlsbD0iI0YxRjFGMSIgaGVpZ2h0PSI0NC45ODQ0IiByeD0iMi41IiByeT0iMi41IiBzdHlsZT0ic3Ryb2tlOiMxODE4MTg7c3Ryb2tlLXdpZHRoOjAuNTsiIHdpZHRoPSIyMDIiIHg9Ijk4Ni44NyIgeT0iNDg2LjUiLz48cmVjdCBmaWxsPSIjRjFGMUYxIiBoZWlnaHQ9IjEwIiBzdHlsZT0ic3Ryb2tlOiMxODE4MTg7c3Ryb2tlLXdpZHRoOjAuNTsiIHdpZHRoPSIxNSIgeD0iMTE2OC44NyIgeT0iNDkxLjUiLz48cmVjdCBmaWxsPSIjRjFGMUYxIiBoZWlnaHQ9IjIiIHN0eWxlPSJzdHJva2U6IzE4MTgxODtzdHJva2Utd2lkdGg6MC41OyIgd2lkdGg9IjQiIHg9IjExNjYuODciIHk9IjQ5My41Ii8+PHJlY3QgZmlsbD0iI0YxRjFGMSIgaGVpZ2h0PSIyIiBzdHlsZT0ic3Ryb2tlOiMxODE4MTg7c3Ryb2tlLXdpZHRoOjAuNTsiIHdpZHRoPSI0IiB4PSIxMTY2Ljg3IiB5PSI0OTcuNSIvPjx0ZXh0IGZpbGw9IiMwMDAwMDAiIGZvbnQtZmFtaWx5PSJzYW5zLXNlcmlmIiBmb250LXNpemU9IjE0IiBsZW5ndGhBZGp1c3Q9InNwYWNpbmciIHRleHRMZW5ndGg9IjE2MiIgeD0iMTAwMS44NyIgeT0iNTE5LjczNDQiPlVzZXIgQWNjb3VudCBNYW5hZ2VtZW50PC90ZXh0PjwvZz48IS0tZW50aXR5IEhBLS0+PGcgaWQ9ImVsZW1fSEEiPjxyZWN0IGZpbGw9IiNGMUYxRjEiIGhlaWdodD0iNDQuOTg0NCIgcng9IjIuNSIgcnk9IjIuNSIgc3R5bGU9InN0cm9rZTojMTgxODE4O3N0cm9rZS13aWR0aDowLjU7IiB3aWR0aD0iMjAyIiB4PSI5ODYuODciIHk9IjU2Ni41Ii8+PHJlY3QgZmlsbD0iI0YxRjFGMSIgaGVpZ2h0PSIxMCIgc3R5bGU9InN0cm9rZTojMTgxODE4O3N0cm9rZS13aWR0aDowLjU7IiB3aWR0aD0iMTUiIHg9IjExNjguODciIHk9IjU3MS41Ii8+PHJlY3QgZmlsbD0iI0YxRjFGMSIgaGVpZ2h0PSIyIiBzdHlsZT0ic3Ryb2tlOiMxODE4MTg7c3Ryb2tlLXdpZHRoOjAuNTsiIHdpZHRoPSI0IiB4PSIxMTY2Ljg3IiB5PSI1NzMuNSIvPjxyZWN0IGZpbGw9IiNGMUYxRjEiIGhlaWdodD0iMiIgc3R5bGU9InN0cm9rZTojMTgxODE4O3N0cm9rZS13aWR0aDowLjU7IiB3aWR0aD0iNCIgeD0iMTE2Ni44NyIgeT0iNTc3LjUiLz48dGV4dCBmaWxsPSIjMDAwMDAwIiBmb250LWZhbWlseT0ic2Fucy1zZXJpZiIgZm9udC1zaXplPSIxNCIgbGVuZ3RoQWRqdXN0PSJzcGFjaW5nIiB0ZXh0TGVuZ3RoPSIxNjIiIHg9IjEwMDEuODciIHk9IjU5OS43MzQ0Ij5Ib3NwaXRhbCBBZG1pbmlzdHJhdGlvbjwvdGV4dD48L2c+PCEtLWVudGl0eSBQQ00tLT48ZyBpZD0iZWxlbV9QQ00iPjxyZWN0IGZpbGw9IiNGMUYxRjEiIGhlaWdodD0iNDQuOTg0NCIgcng9IjIuNSIgcnk9IjIuNSIgc3R5bGU9InN0cm9rZTojMTgxODE4O3N0cm9rZS13aWR0aDowLjU7IiB3aWR0aD0iMjAyIiB4PSI0MDYuODciIHk9IjExNTkuNSIvPjxyZWN0IGZpbGw9IiNGMUYxRjEiIGhlaWdodD0iMTAiIHN0eWxlPSJzdHJva2U6IzE4MTgxODtzdHJva2Utd2lkdGg6MC41OyIgd2lkdGg9IjE1IiB4PSI1ODguODciIHk9IjExNjQuNSIvPjxyZWN0IGZpbGw9IiNGMUYxRjEiIGhlaWdodD0iMiIgc3R5bGU9InN0cm9rZTojMTgxODE4O3N0cm9rZS13aWR0aDowLjU7IiB3aWR0aD0iNCIgeD0iNTg2Ljg3IiB5PSIxMTY2LjUiLz48cmVjdCBmaWxsPSIjRjFGMUYxIiBoZWlnaHQ9IjIiIHN0eWxlPSJzdHJva2U6IzE4MTgxODtzdHJva2Utd2lkdGg6MC41OyIgd2lkdGg9IjQiIHg9IjU4Ni44NyIgeT0iMTE3MC41Ii8+PHRleHQgZmlsbD0iIzAwMDAwMCIgZm9udC1mYW1pbHk9InNhbnMtc2VyaWYiIGZvbnQtc2l6ZT0iMTQiIGxlbmd0aEFkanVzdD0ic3BhY2luZyIgdGV4dExlbmd0aD0iMTYyIiB4PSI0MjEuODciIHk9IjExOTIuNzM0NCI+UGF0aWVudCBDYXJlIE1hbmFnZW1lbnQ8L3RleHQ+PC9nPjwhLS1lbnRpdHkgVlNNLS0+PGcgaWQ9ImVsZW1fVlNNIj48cmVjdCBmaWxsPSIjRjFGMUYxIiBoZWlnaHQ9IjQ0Ljk4NDQiIHJ4PSIyLjUiIHJ5PSIyLjUiIHN0eWxlPSJzdHJva2U6IzE4MTgxODtzdHJva2Utd2lkdGg6MC41OyIgd2lkdGg9IjE4NyIgeD0iNDE0LjM3IiB5PSIxMjM5LjUiLz48cmVjdCBmaWxsPSIjRjFGMUYxIiBoZWlnaHQ9IjEwIiBzdHlsZT0ic3Ryb2tlOiMxODE4MTg7c3Ryb2tlLXdpZHRoOjAuNTsiIHdpZHRoPSIxNSIgeD0iNTgxLjM3IiB5PSIxMjQ0LjUiLz48cmVjdCBmaWxsPSIjRjFGMUYxIiBoZWlnaHQ9IjIiIHN0eWxlPSJzdHJva2U6IzE4MTgxODtzdHJva2Utd2lkdGg6MC41OyIgd2lkdGg9IjQiIHg9IjU3OS4zNyIgeT0iMTI0Ni41Ii8+PHJlY3QgZmlsbD0iI0YxRjFGMSIgaGVpZ2h0PSIyIiBzdHlsZT0ic3Ryb2tlOiMxODE4MTg7c3Ryb2tlLXdpZHRoOjAuNTsiIHdpZHRoPSI0IiB4PSI1NzkuMzciIHk9IjEyNTAuNSIvPjx0ZXh0IGZpbGw9IiMwMDAwMDAiIGZvbnQtZmFtaWx5PSJzYW5zLXNlcmlmIiBmb250LXNpemU9IjE0IiBsZW5ndGhBZGp1c3Q9InNwYWNpbmciIHRleHRMZW5ndGg9IjE0NyIgeD0iNDI5LjM3IiB5PSIxMjcyLjczNDQiPlZpdGFsIFNpZ24gTW9uaXRvcmluZzwvdGV4dD48L2c+PCEtLWVudGl0eSBBTS0tPjxnIGlkPSJlbGVtX0FNIj48cmVjdCBmaWxsPSIjRjFGMUYxIiBoZWlnaHQ9IjQ0Ljk4NDQiIHJ4PSIyLjUiIHJ5PSIyLjUiIHN0eWxlPSJzdHJva2U6IzE4MTgxODtzdHJva2Utd2lkdGg6MC41OyIgd2lkdGg9IjE5NiIgeD0iNDA5Ljg3IiB5PSI3MDYuNSIvPjxyZWN0IGZpbGw9IiNGMUYxRjEiIGhlaWdodD0iMTAiIHN0eWxlPSJzdHJva2U6IzE4MTgxODtzdHJva2Utd2lkdGg6MC41OyIgd2lkdGg9IjE1IiB4PSI1ODUuODciIHk9IjcxMS41Ii8+PHJlY3QgZmlsbD0iI0YxRjFGMSIgaGVpZ2h0PSIyIiBzdHlsZT0ic3Ryb2tlOiMxODE4MTg7c3Ryb2tlLXdpZHRoOjAuNTsiIHdpZHRoPSI0IiB4PSI1ODMuODciIHk9IjcxMy41Ii8+PHJlY3QgZmlsbD0iI0YxRjFGMSIgaGVpZ2h0PSIyIiBzdHlsZT0ic3Ryb2tlOiMxODE4MTg7c3Ryb2tlLXdpZHRoOjAuNTsiIHdpZHRoPSI0IiB4PSI1ODMuODciIHk9IjcxNy41Ii8+PHRleHQgZmlsbD0iIzAwMDAwMCIgZm9udC1mYW1pbHk9InNhbnMtc2VyaWYiIGZvbnQtc2l6ZT0iMTQiIGxlbmd0aEFkanVzdD0ic3BhY2luZyIgdGV4dExlbmd0aD0iMTU2IiB4PSI0MjQuODciIHk9IjczOS43MzQ0Ij5BcHBvaW50bWVudCBNYW5hZ2VtZW50PC90ZXh0PjwvZz48IS0tZW50aXR5IFBDSU8tLT48ZyBpZD0iZWxlbV9QQ0lPIj48cmVjdCBmaWxsPSIjRjFGMUYxIiBoZWlnaHQ9IjQ0Ljk4NDQiIHJ4PSIyLjUiIHJ5PSIyLjUiIHN0eWxlPSJzdHJva2U6IzE4MTgxODtzdHJva2Utd2lkdGg6MC41OyIgd2lkdGg9IjE4MCIgeD0iNDE3Ljg3IiB5PSI3ODYuNSIvPjxyZWN0IGZpbGw9IiNGMUYxRjEiIGhlaWdodD0iMTAiIHN0eWxlPSJzdHJva2U6IzE4MTgxODtzdHJva2Utd2lkdGg6MC41OyIgd2lkdGg9IjE1IiB4PSI1NzcuODciIHk9Ijc5MS41Ii8+PHJlY3QgZmlsbD0iI0YxRjFGMSIgaGVpZ2h0PSIyIiBzdHlsZT0ic3Ryb2tlOiMxODE4MTg7c3Ryb2tlLXdpZHRoOjAuNTsiIHdpZHRoPSI0IiB4PSI1NzUuODciIHk9Ijc5My41Ii8+PHJlY3QgZmlsbD0iI0YxRjFGMSIgaGVpZ2h0PSIyIiBzdHlsZT0ic3Ryb2tlOiMxODE4MTg7c3Ryb2tlLXdpZHRoOjAuNTsiIHdpZHRoPSI0IiB4PSI1NzUuODciIHk9Ijc5Ny41Ii8+PHRleHQgZmlsbD0iIzAwMDAwMCIgZm9udC1mYW1pbHk9InNhbnMtc2VyaWYiIGZvbnQtc2l6ZT0iMTQiIGxlbmd0aEFkanVzdD0ic3BhY2luZyIgdGV4dExlbmd0aD0iMTQwIiB4PSI0MzIuODciIHk9IjgxOS43MzQ0Ij5QYXRpZW50IENoZWNrLUluL091dDwvdGV4dD48L2c+PCEtLWVudGl0eSBVQUEtLT48ZyBpZD0iZWxlbV9VQUEiPjxyZWN0IGZpbGw9IiNGMUYxRjEiIGhlaWdodD0iNDQuOTg0NCIgcng9IjIuNSIgcnk9IjIuNSIgc3R5bGU9InN0cm9rZTojMTgxODE4O3N0cm9rZS13aWR0aDowLjU7IiB3aWR0aD0iMjMwIiB4PSI2OTYuODciIHk9IjIwMC41Ii8+PHJlY3QgZmlsbD0iI0YxRjFGMSIgaGVpZ2h0PSIxMCIgc3R5bGU9InN0cm9rZTojMTgxODE4O3N0cm9rZS13aWR0aDowLjU7IiB3aWR0aD0iMTUiIHg9IjkwNi44NyIgeT0iMjA1LjUiLz48cmVjdCBmaWxsPSIjRjFGMUYxIiBoZWlnaHQ9IjIiIHN0eWxlPSJzdHJva2U6IzE4MTgxODtzdHJva2Utd2lkdGg6MC41OyIgd2lkdGg9IjQiIHg9IjkwNC44NyIgeT0iMjA3LjUiLz48cmVjdCBmaWxsPSIjRjFGMUYxIiBoZWlnaHQ9IjIiIHN0eWxlPSJzdHJva2U6IzE4MTgxODtzdHJva2Utd2lkdGg6MC41OyIgd2lkdGg9IjQiIHg9IjkwNC44NyIgeT0iMjExLjUiLz48dGV4dCBmaWxsPSIjMDAwMDAwIiBmb250LWZhbWlseT0ic2Fucy1zZXJpZiIgZm9udC1zaXplPSIxNCIgbGVuZ3RoQWRqdXN0PSJzcGFjaW5nIiB0ZXh0TGVuZ3RoPSIxOTAiIHg9IjcxMS44NyIgeT0iMjMzLjczNDQiPlVzZXIgQWNjb3VudCBBZG1pbmlzdHJhdGlvbjwvdGV4dD48L2c+PCEtLWVudGl0eSBTTTItLT48ZyBpZD0iZWxlbV9TTTIiPjxyZWN0IGZpbGw9IiNGMUYxRjEiIGhlaWdodD0iNDQuOTg0NCIgcng9IjIuNSIgcnk9IjIuNSIgc3R5bGU9InN0cm9rZTojMTgxODE4O3N0cm9rZS13aWR0aDowLjU7IiB3aWR0aD0iMTYwIiB4PSI3MzEuODciIHk9IjI4MC41Ii8+PHJlY3QgZmlsbD0iI0YxRjFGMSIgaGVpZ2h0PSIxMCIgc3R5bGU9InN0cm9rZTojMTgxODE4O3N0cm9rZS13aWR0aDowLjU7IiB3aWR0aD0iMTUiIHg9Ijg3MS44NyIgeT0iMjg1LjUiLz48cmVjdCBmaWxsPSIjRjFGMUYxIiBoZWlnaHQ9IjIiIHN0eWxlPSJzdHJva2U6IzE4MTgxODtzdHJva2Utd2lkdGg6MC41OyIgd2lkdGg9IjQiIHg9Ijg2OS44NyIgeT0iMjg3LjUiLz48cmVjdCBmaWxsPSIjRjFGMUYxIiBoZWlnaHQ9IjIiIHN0eWxlPSJzdHJva2U6IzE4MTgxODtzdHJva2Utd2lkdGg6MC41OyIgd2lkdGg9IjQiIHg9Ijg2OS44NyIgeT0iMjkxLjUiLz48dGV4dCBmaWxsPSIjMDAwMDAwIiBmb250LWZhbWlseT0ic2Fucy1zZXJpZiIgZm9udC1zaXplPSIxNCIgbGVuZ3RoQWRqdXN0PSJzcGFjaW5nIiB0ZXh0TGVuZ3RoPSIxMjAiIHg9Ijc0Ni44NyIgeT0iMzEzLjczNDQiPlN5c3RlbSBNb25pdG9yaW5nPC90ZXh0PjwvZz48IS0tbGluayBQQSB0byBQREItLT48ZyBpZD0ibGlua19QQV9QREIiPjxwYXRoIGQ9Ik0yNzMuNjcsODE0LjM2IEMyOTYuMjIsODA4LjkgMzIwLjQzLDc5OC45OCAzMzYuMzcsNzgxIEMzNjMuNzUsNzUwLjEyIDMyNy45LDcyMS4yNCAzNTQuODcsNjkwIEMzNzUuNSw2NjYuMSA0MDcuMzQsNjUyLjU5IDQzNi41Nyw2NDQuOTQgIiBmaWxsPSJub25lIiBpZD0iUEEtdG8tUERCIiBzdHlsZT0ic3Ryb2tlOiMxODE4MTg7c3Ryb2tlLXdpZHRoOjEuMDsiLz48cG9seWdvbiBmaWxsPSIjMTgxODE4IiBwb2ludHM9IjQ0MS42MSw2NDMuNjgsNDMxLjkwNzQsNjQxLjk4OSw0MzYuNzYwMSw2NDQuODk2LDQzMy44NTMxLDY0OS43NDg4LDQ0MS42MSw2NDMuNjgiIHN0eWxlPSJzdHJva2U6IzE4MTgxODtzdHJva2Utd2lkdGg6MS4wOyIvPjwvZz48IS0tbGluayBEQSB0byBQREItLT48ZyBpZD0ibGlua19EQV9QREIiPjxwYXRoIGQ9Ik0yODguNjIsNzE4LjQ0IEMzMDQuNTUsNzEyLjkgMzIxLjE4LDcwNi42MyAzMzYuMzcsNzAwIEMzNDQuOTMsNjk2LjI2IDM0Ni4zNCw2OTMuODIgMzU0Ljg3LDY5MCBDMzgxLjE1LDY3OC4yMiA0MTAuNzgsNjY3LjA1IDQzNi44Niw2NTcuODkgIiBmaWxsPSJub25lIiBpZD0iREEtdG8tUERCIiBzdHlsZT0ic3Ryb2tlOiMxODE4MTg7c3Ryb2tlLXdpZHRoOjEuMDsiLz48cG9seWdvbiBmaWxsPSIjMTgxODE4IiBwb2ludHM9IjQ0MS42OCw2NTYuMiw0MzEuODYyOCw2NTUuNDExLDQzNi45NjI5LDY1Ny44NTgxLDQzNC41MTU4LDY2Mi45NTgzLDQ0MS42OCw2NTYuMiIgc3R5bGU9InN0cm9rZTojMTgxODE4O3N0cm9rZS13aWR0aDoxLjA7Ii8+PC9nPjwhLS1saW5rIERBIHRvIExEQi0tPjxnIGlkPSJsaW5rX0RBX0xEQiI+PHBhdGggZD0iTTExMC41OCw3MzEuNjkgQzgxLjc3LDcyMy4zNiA1NC4zMiw3MDguNTQgMzkuMzcsNjgyLjUgQzI5LjYzLDY2NS41NCAyOS42Myw2NTUuNDYgMzkuMzcsNjM4LjUgQzU5LjM1LDYwMy43IDEwMS44Niw1ODkuNDQgMTQwLjAzLDU4My45NCAiIGZpbGw9Im5vbmUiIGlkPSJEQS10by1MREIiIHN0eWxlPSJzdHJva2U6IzE4MTgxODtzdHJva2Utd2lkdGg6MS4wOyIvPjxwb2x5Z29uIGZpbGw9IiMxODE4MTgiIHBvaW50cz0iMTQ1LjE0LDU4My4yNSwxMzUuNjg0Niw1ODAuNDk0MiwxNDAuMTg1Miw1ODMuOTIxMSwxMzYuNzU4Myw1ODguNDIxOCwxNDUuMTQsNTgzLjI1IiBzdHlsZT0ic3Ryb2tlOiMxODE4MTg7c3Ryb2tlLXdpZHRoOjEuMDsiLz48L2c+PCEtLWxpbmsgUFMgdG8gTURCLS0+PGcgaWQ9ImxpbmtfUFNfTURCIj48cGF0aCBkPSJNMjg4LjY5LDEwMjguNTggQzMxMC4wMSwxMDM0LjU3IDMzMy4zNiwxMDQxLjA4IDM1NC44NywxMDQ3IEMzNzcuOTksMTA1My4zNiA0MDMuMTMsMTA2MC4xOCA0MjYuMTcsMTA2Ni40ICIgZmlsbD0ibm9uZSIgaWQ9IlBTLXRvLU1EQiIgc3R5bGU9InN0cm9rZTojMTgxODE4O3N0cm9rZS13aWR0aDoxLjA7Ii8+PHBvbHlnb24gZmlsbD0iIzE4MTgxOCIgcG9pbnRzPSI0MzEuMDYsMTA2Ny43MSw0MjMuNDI2NSwxMDYxLjQ4NjcsNDI2LjIzNTUsMTA2Ni4zOTY4LDQyMS4zMjU0LDEwNjkuMjA1OSw0MzEuMDYsMTA2Ny43MSIgc3R5bGU9InN0cm9rZTojMTgxODE4O3N0cm9rZS13aWR0aDoxLjA7Ii8+PC9nPjwhLS1yZXZlcnNlIGxpbmsgTERCIHRvIExTLS0+PGcgaWQ9ImxpbmtfTERCX0xTIj48cGF0aCBkPSJNMTQwLjA1LDU3OS41OSBDMTAxLjg5LDU3My44NiA1OS4zOSw1NTkuMzYgMzkuMzcsNTI0LjUgQzI5LjYzLDUwNy41NCAyOS42Myw0OTcuNDYgMzkuMzcsNDgwLjUgQzU2LjA2LDQ1MS40NSA4OC4zNiw0MzYuNTMgMTIwLjc2LDQyOS4wNSAiIGZpbGw9Im5vbmUiIGlkPSJMREItYmFja3RvLUxTIiBzdHlsZT0ic3Ryb2tlOiMxODE4MTg7c3Ryb2tlLXdpZHRoOjEuMDsiLz48cG9seWdvbiBmaWxsPSIjMTgxODE4IiBwb2ludHM9IjE0NS4xNiw1ODAuMzEsMTM2LjgwNzcsNTc1LjA5MDksMTQwLjIwOTEsNTc5LjYxMDksMTM1LjY4OTEsNTgzLjAxMjMsMTQ1LjE2LDU4MC4zMSIgc3R5bGU9InN0cm9rZTojMTgxODE4O3N0cm9rZS13aWR0aDoxLjA7Ii8+PC9nPjwhLS1yZXZlcnNlIGxpbmsgU0RCIHRvIE1ELS0+PGcgaWQ9ImxpbmtfU0RCX01EIj48cGF0aCBkPSJNMjc4LjgsNjU0LjM5IEMzMDAuMzQsNjQ4Ljg2IDMyMi40OCw2MzguODkgMzM2LjM3LDYyMSBDMzcyLjU2LDU3NC4zNiAzMTEuNywzOTYuMjYgMzU0Ljg3LDM1NiBDNDA0LjYsMzA5LjYyIDU5OC4xNywzMjkuNjcgNjYwLjg3LDM1NiBDNzI0LjMyLDM4Mi42NSA3NzQuNCw0NTAuNjggNzk3LjI5LDQ4Ni4zNyAiIGZpbGw9Im5vbmUiIGlkPSJTREItYmFja3RvLU1EIiBzdHlsZT0ic3Ryb2tlOiMxODE4MTg7c3Ryb2tlLXdpZHRoOjEuMDsiLz48cG9seWdvbiBmaWxsPSIjMTgxODE4IiBwb2ludHM9IjI3My45Miw2NTUuNTcsMjgzLjYxMDcsNjU3LjMyODEsMjc4Ljc3ODIsNjU0LjM4NzUsMjgxLjcxODcsNjQ5LjU1NSwyNzMuOTIsNjU1LjU3IiBzdHlsZT0ic3Ryb2tlOiMxODE4MTg7c3Ryb2tlLXdpZHRoOjEuMDsiLz48L2c+PCEtLXJldmVyc2UgbGluayBQREIgdG8gTUQtLT48ZyBpZD0ibGlua19QREJfTUQiPjxwYXRoIGQ9Ik01NzkuMiw2MTkuOTYgQzYwNS4zMyw2MTMuMzYgNjM0LjkxLDYwNC42NSA2NjAuODcsNTk0IEM3MDIuNjgsNTc2Ljg0IDc0Ny4zNSw1NTAuMzUgNzc2Ljk3LDUzMS41MSAiIGZpbGw9Im5vbmUiIGlkPSJQREItYmFja3RvLU1EIiBzdHlsZT0ic3Ryb2tlOiMxODE4MTg7c3Ryb2tlLXdpZHRoOjEuMDsiLz48cG9seWdvbiBmaWxsPSIjMTgxODE4IiBwb2ludHM9IjU3NC4wMyw2MjEuMjUsNTgzLjcyNjcsNjIyLjk3NDYsNTc4Ljg4NDEsNjIwLjA1MDgsNTgxLjgwNzksNjE1LjIwODEsNTc0LjAzLDYyMS4yNSIgc3R5bGU9InN0cm9rZTojMTgxODE4O3N0cm9rZS13aWR0aDoxLjA7Ii8+PC9nPjwhLS1saW5rIE5TIHRvIFBEQi0tPjxnIGlkPSJsaW5rX05TX1BEQiI+PHBhdGggZD0iTTI0NS42NSwxMTU5LjM0IEMyNzQuNjksMTEzNS4yOSAzMTcuMTgsMTA5NC40MSAzMzYuMzcsMTA0OCBDMzUxLjU5LDEwMTEuMTkgMzMxLjE2LDcyMiAzNTQuODcsNjkwIEMzNzMuOTgsNjY0LjIxIDQwNi4zNSw2NTAuNDggNDM2LjMzLDY0My4xOSAiIGZpbGw9Im5vbmUiIGlkPSJOUy10by1QREIiIHN0eWxlPSJzdHJva2U6IzE4MTgxODtzdHJva2Utd2lkdGg6MS4wOyIvPjxwb2x5Z29uIGZpbGw9IiMxODE4MTgiIHBvaW50cz0iNDQxLjUsNjQxLjk5LDQzMS44Mjk0LDY0MC4xMjQ1LDQzNi42MjksNjQzLjExODUsNDMzLjYzNSw2NDcuOTE4LDQ0MS41LDY0MS45OSIgc3R5bGU9InN0cm9rZTojMTgxODE4O3N0cm9rZS13aWR0aDoxLjA7Ii8+PC9nPjwhLS1saW5rIFJEIHRvIEFEQi0tPjxnIGlkPSJsaW5rX1JEX0FEQiI+PHBhdGggZD0iTTE0NS42Miw4OTkuMzcgQzEwNi4xLDg5NC4yMyA2MC4zNyw4ODAuMDYgMzkuMzcsODQzLjUgQzcuOTMsNzg4Ljc3IDcuOTMsNjE0LjIzIDM5LjM3LDU1OS41IEM1Ny40NSw1MjguMDIgOTMuOTYsNTEzLjM0IDEyOS4wMiw1MDYuNzYgIiBmaWxsPSJub25lIiBpZD0iUkQtdG8tQURCIiBzdHlsZT0ic3Ryb2tlOiMxODE4MTg7c3Ryb2tlLXdpZHRoOjEuMDsiLz48cG9seWdvbiBmaWxsPSIjMTgxODE4IiBwb2ludHM9IjEzNC4xOCw1MDUuODUsMTI0LjYyMSw1MDMuNDc4MSwxMjkuMjU2NCw1MDYuNzIwNiwxMjYuMDEzOSw1MTEuMzU1OSwxMzQuMTgsNTA1Ljg1IiBzdHlsZT0ic3Ryb2tlOiMxODE4MTg7c3Ryb2tlLXdpZHRoOjEuMDsiLz48L2c+PCEtLWxpbmsgUkQgdG8gUERCLS0+PGcgaWQ9ImxpbmtfUkRfUERCIj48cGF0aCBkPSJNMjgzLjkzLDg5Mi41OSBDMzAzLjY1LDg4Ni44IDMyMy4zNSw4NzcuMTIgMzM2LjM3LDg2MSBDMzg0LjM4LDgwMS41MSAzMDcuNjYsNzUwLjEyIDM1NC44Nyw2OTAgQzM3NC42MSw2NjQuODYgNDA2Ljg4LDY1MS4yIDQzNi42Miw2NDMuNzkgIiBmaWxsPSJub25lIiBpZD0iUkQtdG8tUERCIiBzdHlsZT0ic3Ryb2tlOiMxODE4MTg7c3Ryb2tlLXdpZHRoOjEuMDsiLz48cG9seWdvbiBmaWxsPSIjMTgxODE4IiBwb2ludHM9IjQ0MS43NSw2NDIuNTYsNDMyLjA2OCw2NDAuNzU0Niw0MzYuODg2MSw2NDMuNzE4Nyw0MzMuOTIyLDY0OC41MzY4LDQ0MS43NSw2NDIuNTYiIHN0eWxlPSJzdHJva2U6IzE4MTgxODtzdHJva2Utd2lkdGg6MS4wOyIvPjwvZz48IS0tcmV2ZXJzZSBsaW5rIFBEQiB0byBTQS0tPjxnIGlkPSJsaW5rX1BEQl9TQSI+PHBhdGggZD0iTTQzNi40NSw2MzQuMDIgQzM5Ny40LDYyOS4wMiAzNTUuMDcsNjE0LjYxIDM0NS42Miw1NzYuNSBDMzM5LjA0LDU0OS45NyAzMzkuMDQsMzU3LjAzIDM0NS42MiwzMzAuNSBDMzQ3Ljc0LDMyMS45NiAzNDguMTQsMzE4LjY3IDM1NC44NywzMTMgQzM3NC40MiwyOTYuNTIgMzk5LjU0LDI4NS40NCA0MjMuNzUsMjc3Ljk5ICIgZmlsbD0ibm9uZSIgaWQ9IlBEQi1iYWNrdG8tU0EiIHN0eWxlPSJzdHJva2U6IzE4MTgxODtzdHJva2Utd2lkdGg6MS4wOyIvPjxwb2x5Z29uIGZpbGw9IiMxODE4MTgiIHBvaW50cz0iNDQxLjY5LDYzNC42NCw0MzMuMjIxNSw2MjkuNjExNiw0MzYuNzI0NSw2MzQuMDUzMyw0MzIuMjgyOCw2MzcuNTU2Myw0NDEuNjksNjM0LjY0IiBzdHlsZT0ic3Ryb2tlOiMxODE4MTg7c3Ryb2tlLXdpZHRoOjEuMDsiLz48L2c+PCEtLXJldmVyc2UgbGluayBMREIgdG8gU0EtLT48ZyBpZD0ibGlua19MREJfU0EiPjxwYXRoIGQ9Ik0yODkuNTYsNTcyLjEzIEMzMDcuNDQsNTY2LjIgMzI0Ljc0LDU1Ni44MiAzMzYuMzcsNTQyIEMzNjcuODksNTAxLjg0IDMyMy4yOSwzNTMuMTIgMzU0Ljg3LDMxMyBDMzcxLjYyLDI5MS43MiAzOTcuNjYsMjc5LjM5IDQyMy40OCwyNzIuMjkgIiBmaWxsPSJub25lIiBpZD0iTERCLWJhY2t0by1TQSIgc3R5bGU9InN0cm9rZTojMTgxODE4O3N0cm9rZS13aWR0aDoxLjA7Ii8+PHBvbHlnb24gZmlsbD0iIzE4MTgxOCIgcG9pbnRzPSIyODQuNTEsNTczLjcxLDI5NC4yOTUzLDU3NC44MjY4LDI4OS4yNzk5LDU3Mi4yMTA1LDI5MS44OTYxLDU2Ny4xOTUsMjg0LjUxLDU3My43MSIgc3R5bGU9InN0cm9rZTojMTgxODE4O3N0cm9rZS13aWR0aDoxLjA7Ii8+PC9nPjwhLS1yZXZlcnNlIGxpbmsgTURCIHRvIFNBLS0+PGcgaWQ9ImxpbmtfTURCX1NBIj48cGF0aCBkPSJNNDI1LjcsMTA4NS40MSBDMzg5Ljk0LDEwNzkuMTkgMzU0LjIxLDEwNjQuMTMgMzQ1LjYyLDEwMjkuNSBDMzM2LjI3LDk5MS44MSAzMzYuMjcsMzY4LjE5IDM0NS42MiwzMzAuNSBDMzU0LjE3LDI5NiAzODguNTQsMjc4LjkyIDQyMy40NiwyNzAuNTYgIiBmaWxsPSJub25lIiBpZD0iTURCLWJhY2t0by1TQSIgc3R5bGU9InN0cm9rZTojMTgxODE4O3N0cm9rZS13aWR0aDoxLjA7Ii8+PHBvbHlnb24gZmlsbD0iIzE4MTgxOCIgcG9pbnRzPSI0MzAuOTcsMTA4Ni4yNiw0MjIuNzI0NywxMDgwLjg3MzQsNDI2LjAzNDIsMTA4NS40NjExLDQyMS40NDY1LDEwODguNzcwNyw0MzAuOTcsMTA4Ni4yNiIgc3R5bGU9InN0cm9rZTojMTgxODE4O3N0cm9rZS13aWR0aDoxLjA7Ii8+PC9nPjwhLS1yZXZlcnNlIGxpbmsgU0RCIHRvIFNBLS0+PGcgaWQ9ImxpbmtfU0RCX1NBIj48cGF0aCBkPSJNMjc4Ljg5LDY1NC40NiBDMzAwLjQ0LDY0OC45NCAzMjIuNTcsNjM4Ljk2IDMzNi4zNyw2MjEgQzM3OC4xNCw1NjYuNjMgMzEzLjAyLDM2Ny4zMiAzNTQuODcsMzEzIEMzNzEuNDgsMjkxLjQzIDM5Ny42NSwyNzkuMDUgNDIzLjYzLDI3MS45OCAiIGZpbGw9Im5vbmUiIGlkPSJTREItYmFja3RvLVNBIiBzdHlsZT0ic3Ryb2tlOiMxODE4MTg7c3Ryb2tlLXdpZHRoOjEuMDsiLz48cG9seWdvbiBmaWxsPSIjMTgxODE4IiBwb2ludHM9IjI3NC4wMiw2NTUuNjQsMjgzLjcxMTksNjU3LjM5MTUsMjc4Ljg3NzQsNjU0LjQ1NDIsMjgxLjgxNDYsNjQ5LjYxOTcsMjc0LjAyLDY1NS42NCIgc3R5bGU9InN0cm9rZTojMTgxODE4O3N0cm9rZS13aWR0aDoxLjA7Ii8+PC9nPjwhLS1yZXZlcnNlIGxpbmsgQURCIHRvIFNBLS0+PGcgaWQ9ImxpbmtfQURCX1NBIj48cGF0aCBkPSJNMzAwLjExLDQ4OC42OCBDMzEzLjk4LDQ4Mi44MSAzMjYuODksNDc0LjU2IDMzNi4zNyw0NjMgQzM3OC45NCw0MTEuMDQgMzEyLjIyLDM2NC45IDM1NC44NywzMTMgQzM3MS45OCwyOTIuMTggMzk3Ljk0LDI3OS45NiA0MjMuNiwyNzIuODEgIiBmaWxsPSJub25lIiBpZD0iQURCLWJhY2t0by1TQSIgc3R5bGU9InN0cm9rZTojMTgxODE4O3N0cm9rZS13aWR0aDoxLjA7Ii8+PHBvbHlnb24gZmlsbD0iIzE4MTgxOCIgcG9pbnRzPSIyOTUuMzcsNDkwLjU4LDMwNS4yMTMyLDQ5MC45MTQ4LDMwMC4wMDU0LDQ4OC43MDU4LDMwMi4yMTQ0LDQ4My40OTgxLDI5NS4zNyw0OTAuNTgiIHN0eWxlPSJzdHJva2U6IzE4MTgxODtzdHJva2Utd2lkdGg6MS4wOyIvPjwvZz48IS0tbGluayBQQSB0byBQUi0tPjxnIGlkPSJsaW5rX1BBX1BSIj48cGF0aCBkPSJNMTU2LjI1LDgyMC41NiBDMTE0LjY1LDgxNi42MyA2Mi4yOCw4MDMuNCAzOS4zNyw3NjMuNSBDMTQuODUsNzIwLjgyIDE0Ljg1LDM2My4xOCAzOS4zNywzMjAuNSBDNTUuODEsMjkxLjg3IDg3LjQzLDI3Ni45NiAxMTkuMzUsMjY5LjM4ICIgZmlsbD0ibm9uZSIgaWQ9IlBBLXRvLVBSIiBzdHlsZT0ic3Ryb2tlOiMxODE4MTg7c3Ryb2tlLXdpZHRoOjEuMDsiLz48cG9seWdvbiBmaWxsPSIjMTgxODE4IiBwb2ludHM9IjEyNC40OCwyNjguMjMsMTE0LjgyLDI2Ni4zMTA2LDExOS42MDI4LDI2OS4zMzEzLDExNi41ODIxLDI3NC4xMTQxLDEyNC40OCwyNjguMjMiIHN0eWxlPSJzdHJva2U6IzE4MTgxODtzdHJva2Utd2lkdGg6MS4wOyIvPjwvZz48IS0tbGluayBQQSB0byBBUy0tPjxnIGlkPSJsaW5rX1BBX0FTIj48cGF0aCBkPSJNMTU2LjI1LDgyMC41NiBDMTE0LjY1LDgxNi42MyA2Mi4yOCw4MDMuNCAzOS4zNyw3NjMuNSBDMTguNSw3MjcuMTggMTguNSw0MjIuODIgMzkuMzcsMzg2LjUgQzU0LjI5LDM2MC41MSA4Mi41LDM0Ny44NiAxMTIsMzQyLjIxICIgZmlsbD0ibm9uZSIgaWQ9IlBBLXRvLUFTIiBzdHlsZT0ic3Ryb2tlOiMxODE4MTg7c3Ryb2tlLXdpZHRoOjEuMDsiLz48cG9seWdvbiBmaWxsPSIjMTgxODE4IiBwb2ludHM9IjExNy4xMywzNDEuMjksMTA3LjU2OTgsMzM4LjkyMjksMTEyLjIwNjgsMzQyLjE2MywxMDguOTY2NywzNDYuOCwxMTcuMTMsMzQxLjI5IiBzdHlsZT0ic3Ryb2tlOiMxODE4MTg7c3Ryb2tlLXdpZHRoOjEuMDsiLz48L2c+PCEtLWxpbmsgUEEgdG8gTVJBLS0+PGcgaWQ9ImxpbmtfUEFfTVJBIj48cGF0aCBkPSJNMTU2LjI1LDgyMC41NiBDMTE0LjY1LDgxNi42MyA2Mi4yOCw4MDMuNCAzOS4zNyw3NjMuNSBDNiw3MDUuNCA2LDIxOC42IDM5LjM3LDE2MC41IEM1NS4yOCwxMzIuNzkgODUuNDEsMTE3Ljk0IDExNi4yNywxMTAuMTQgIiBmaWxsPSJub25lIiBpZD0iUEEtdG8tTVJBIiBzdHlsZT0ic3Ryb2tlOiMxODE4MTg7c3Ryb2tlLXdpZHRoOjEuMDsiLz48cG9seWdvbiBmaWxsPSIjMTgxODE4IiBwb2ludHM9IjEyMS4yMiwxMDguOTUsMTExLjUzNDIsMTA3LjE2NTEsMTE2LjM1ODYsMTEwLjExOSwxMTMuNDA0NywxMTQuOTQzNCwxMjEuMjIsMTA4Ljk1IiBzdHlsZT0ic3Ryb2tlOiMxODE4MTg7c3Ryb2tlLXdpZHRoOjEuMDsiLz48L2c+PCEtLWxpbmsgUEEgdG8gUFAtLT48ZyBpZD0ibGlua19QQV9QUCI+PHBhdGggZD0iTTE1Ni4yNSw4MjAuNTYgQzExNC42NSw4MTYuNjMgNjIuMjgsODAzLjQgMzkuMzcsNzYzLjUgQzEwLjQyLDcxMy4xMSAxMC40MiwyOTAuODkgMzkuMzcsMjQwLjUgQzU2Ljk1LDIwOS44OSA5MS44NiwxOTQuOTggMTI1Ljk1LDE4Ny45MiAiIGZpbGw9Im5vbmUiIGlkPSJQQS10by1QUCIgc3R5bGU9InN0cm9rZTojMTgxODE4O3N0cm9rZS13aWR0aDoxLjA7Ii8+PHBvbHlnb24gZmlsbD0iIzE4MTgxOCIgcG9pbnRzPSIxMzAuOTcsMTg2LjkzLDEyMS4zNzAxLDE4NC43Mjk2LDEyNi4wNjI3LDE4Ny44ODg2LDEyMi45MDM4LDE5Mi41ODEyLDEzMC45NywxODYuOTMiIHN0eWxlPSJzdHJva2U6IzE4MTgxODtzdHJva2Utd2lkdGg6MS4wOyIvPjwvZz48IS0tbGluayBEQSB0byBQUk0tLT48ZyBpZD0ibGlua19EQV9QUk0iPjxwYXRoIGQ9Ik0zMTUuODMsNzE4LjM2IEMzMjMuNjYsNzEzLjQgMzMwLjcsNzA3LjM1IDMzNi4zNyw3MDAgQzM3Mi4zOSw2NTMuMjMgMzE3LjIyLDQ4MC40NyAzNTQuODcsNDM1IEMzNjUuNDMsNDIyLjI0IDM3OS41NCw0MTMuMjggMzk0LjkxLDQwNy4wNCAiIGZpbGw9Im5vbmUiIGlkPSJEQS10by1QUk0iIHN0eWxlPSJzdHJva2U6IzE4MTgxODtzdHJva2Utd2lkdGg6MS4wOyIvPjxwb2x5Z29uIGZpbGw9IiMxODE4MTgiIHBvaW50cz0iMzk5LjcyLDQwNS4xOSwzODkuODgzNyw0MDQuNjkzNSwzOTUuMDU0NCw0MDYuOTg3OCwzOTIuNzYwMSw0MTIuMTU4NSwzOTkuNzIsNDA1LjE5IiBzdHlsZT0ic3Ryb2tlOiMxODE4MTg7c3Ryb2tlLXdpZHRoOjEuMDsiLz48L2c+PCEtLWxpbmsgREEgdG8gRFQtLT48ZyBpZD0ibGlua19EQV9EVCI+PHBhdGggZD0iTTMxNS4zMiw3MTguMzYgQzMyMy4zLDcxMy40IDMzMC41Myw3MDcuMzUgMzM2LjM3LDcwMCBDMzg3Ljc2LDYzNS4zIDMwMS4yMiw1NzcuODUgMzU0Ljg3LDUxNSBDMzcyLjcxLDQ5NC4wOSA0MDAuMDUsNDgzLjQ1IDQyNi42NCw0NzguMjIgIiBmaWxsPSJub25lIiBpZD0iREEtdG8tRFQiIHN0eWxlPSJzdHJva2U6IzE4MTgxODtzdHJva2Utd2lkdGg6MS4wOyIvPjxwb2x5Z29uIGZpbGw9IiMxODE4MTgiIHBvaW50cz0iNDMxLjYsNDc3LjMxLDQyMi4wMjE0LDQ3NS4wMTg3LDQyNi42ODM5LDQ3OC4yMjIsNDIzLjQ4MDYsNDgyLjg4NDUsNDMxLjYsNDc3LjMxIiBzdHlsZT0ic3Ryb2tlOiMxODE4MTg7c3Ryb2tlLXdpZHRoOjEuMDsiLz48L2c+PCEtLWxpbmsgREEgdG8gVFAtLT48ZyBpZD0ibGlua19EQV9UUCI+PHBhdGggZD0iTTMxNC4zMyw3MTguMzcgQzMyMi42Myw3MTMuNCAzMzAuMTksNzA3LjM2IDMzNi4zNyw3MDAgQzM3MC43OSw2NTkuMDEgMzE3LjMxLDYxOS4xMyAzNTQuODcsNTgxIEMzNjkuMjQsNTY2LjQxIDM4OC42LDU1OC4yMSA0MDguNjgsNTUzLjkgIiBmaWxsPSJub25lIiBpZD0iREEtdG8tVFAiIHN0eWxlPSJzdHJva2U6IzE4MTgxODtzdHJva2Utd2lkdGg6MS4wOyIvPjxwb2x5Z29uIGZpbGw9IiMxODE4MTgiIHBvaW50cz0iNDEzLjgsNTUyLjg4LDQwNC4xOTQsNTUwLjcwNjYsNDA4Ljg5NTUsNTUzLjg1MjMsNDA1Ljc0OTcsNTU4LjU1MzgsNDEzLjgsNTUyLjg4IiBzdHlsZT0ic3Ryb2tlOiMxODE4MTg7c3Ryb2tlLXdpZHRoOjEuMDsiLz48L2c+PCEtLWxpbmsgUFMgdG8gUFAyLS0+PGcgaWQ9ImxpbmtfUFNfUFAyIj48cGF0aCBkPSJNMjg4LjY0LDk4Ni43MiBDMzA5Ljk2LDk4MC41OCAzMzMuMzIsOTczLjkzIDM1NC44Nyw5NjggQzM3NC4yNyw5NjIuNjYgMzk1LjExLDk1Ny4wNyA0MTQuOTQsOTUxLjgzICIgZmlsbD0ibm9uZSIgaWQ9IlBTLXRvLVBQMiIgc3R5bGU9InN0cm9rZTojMTgxODE4O3N0cm9rZS13aWR0aDoxLjA7Ii8+PHBvbHlnb24gZmlsbD0iIzE4MTgxOCIgcG9pbnRzPSI0MTkuOTYsOTUwLjUsNDEwLjIzMzgsOTQ4Ljk1MDQsNDE1LjEyODQsOTUxLjc4NjUsNDEyLjI5MjMsOTU2LjY4MTEsNDE5Ljk2LDk1MC41IiBzdHlsZT0ic3Ryb2tlOiMxODE4MTg7c3Ryb2tlLXdpZHRoOjEuMDsiLz48L2c+PCEtLWxpbmsgUFMgdG8gTUlNLS0+PGcgaWQ9ImxpbmtfUFNfTUlNIj48cGF0aCBkPSJNMjg4LjU1LDEwMDggQzMxNC40MSwxMDA4IDM0NC40LDEwMDggMzczLjcyLDEwMDggIiBmaWxsPSJub25lIiBpZD0iUFMtdG8tTUlNIiBzdHlsZT0ic3Ryb2tlOiMxODE4MTg7c3Ryb2tlLXdpZHRoOjEuMDsiLz48cG9seWdvbiBmaWxsPSIjMTgxODE4IiBwb2ludHM9IjM3OC44LDEwMDgsMzY5LjgsMTAwNCwzNzMuOCwxMDA4LDM2OS44LDEwMTIsMzc4LjgsMTAwOCIgc3R5bGU9InN0cm9rZTojMTgxODE4O3N0cm9rZS13aWR0aDoxLjA7Ii8+PC9nPjwhLS1saW5rIExTIHRvIFRPTS0tPjxnIGlkPSJsaW5rX0xTX1RPTSI+PHBhdGggZD0iTTMwOC44OCw0MDQuMzEgQzMxOS40NiwzOTguNyAzMjkuMDUsMzkxLjQzIDMzNi4zNywzODIgQzM2OS4wMywzMzkuOTIgMzIwLjc0LDE4My45IDM1NC44NywxNDMgQzM2OC41NCwxMjYuNjEgMzg4LjA1LDExNi41IDQwOC41NiwxMTAuMzcgIiBmaWxsPSJub25lIiBpZD0iTFMtdG8tVE9NIiBzdHlsZT0ic3Ryb2tlOiMxODE4MTg7c3Ryb2tlLXdpZHRoOjEuMDsiLz48cG9seWdvbiBmaWxsPSIjMTgxODE4IiBwb2ludHM9IjQxMy41MSwxMDguOTcsNDAzLjc2MjMsMTA3LjU2Miw0MDguNjk3NiwxMTAuMzI2Niw0MDUuOTMyOSwxMTUuMjYxOSw0MTMuNTEsMTA4Ljk3IiBzdHlsZT0ic3Ryb2tlOiMxODE4MTg7c3Ryb2tlLXdpZHRoOjEuMDsiLz48L2c+PCEtLWxpbmsgTFMgdG8gUkUtLT48ZyBpZD0ibGlua19MU19SRSI+PHBhdGggZD0iTTMwOC45Miw0MDMuOTUgQzMxOS40MiwzOTguNCAzMjguOTgsMzkxLjIzIDMzNi4zNywzODIgQzM4NC42NywzMjEuNjEgMzAxLjkzLDI2NS4zNyAzNTQuODcsMjA5IEMzNzYuNDQsMTg2LjAzIDQxMC4zLDE3OC42OSA0NDAuNTksMTc3LjQ1ICIgZmlsbD0ibm9uZSIgaWQ9IkxTLXRvLVJFIiBzdHlsZT0ic3Ryb2tlOiMxODE4MTg7c3Ryb2tlLXdpZHRoOjEuMDsiLz48cG9seWdvbiBmaWxsPSIjMTgxODE4IiBwb2ludHM9IjQ0NS44MSwxNzcuMyw0MzYuNjg4OCwxNzMuNTg0Nyw0NDAuODEyNSwxNzcuNDU3MSw0MzYuOTQwMSwxODEuNTgwNyw0NDUuODEsMTc3LjMiIHN0eWxlPSJzdHJva2U6IzE4MTgxODtzdHJva2Utd2lkdGg6MS4wOyIvPjwvZz48IS0tbGluayBNRCB0byBTTS0tPjxnIGlkPSJsaW5rX01EX1NNIj48cGF0aCBkPSJNODkwLjI5LDQ4Ni40IEM5MjYuNDgsNDc1LjgzIDk2OS41Nyw0NjMuMjUgMTAwNi4xNyw0NTIuNTYgIiBmaWxsPSJub25lIiBpZD0iTUQtdG8tU00iIHN0eWxlPSJzdHJva2U6IzE4MTgxODtzdHJva2Utd2lkdGg6MS4wOyIvPjxwb2x5Z29uIGZpbGw9IiMxODE4MTgiIHBvaW50cz0iMTAxMS4wNiw0NTEuMTMsMTAwMS4yOTg5LDQ0OS44MTc4LDEwMDYuMjYxMSw0NTIuNTMzOSwxMDAzLjU0NTEsNDU3LjQ5NiwxMDExLjA2LDQ1MS4xMyIgc3R5bGU9InN0cm9rZTojMTgxODE4O3N0cm9rZS13aWR0aDoxLjA7Ii8+PC9nPjwhLS1saW5rIE1EIHRvIFVBTS0tPjxnIGlkPSJsaW5rX01EX1VBTSI+PHBhdGggZD0iTTkwMi41OSw1MDkgQzkyNy43NSw1MDkgOTU1LjM1LDUwOSA5ODEuMzQsNTA5ICIgZmlsbD0ibm9uZSIgaWQ9Ik1ELXRvLVVBTSIgc3R5bGU9InN0cm9rZTojMTgxODE4O3N0cm9rZS13aWR0aDoxLjA7Ii8+PHBvbHlnb24gZmlsbD0iIzE4MTgxOCIgcG9pbnRzPSI5ODYuNTIsNTA5LDk3Ny41Miw1MDUsOTgxLjUyLDUwOSw5NzcuNTIsNTEzLDk4Ni41Miw1MDkiIHN0eWxlPSJzdHJva2U6IzE4MTgxODtzdHJva2Utd2lkdGg6MS4wOyIvPjwvZz48IS0tbGluayBNRCB0byBIQS0tPjxnIGlkPSJsaW5rX01EX0hBIj48cGF0aCBkPSJNODkwLjI5LDUzMS42IEM5MjYuMDMsNTQyLjA0IDk2OC40OSw1NTQuNDQgMTAwNC43OSw1NjUuMDQgIiBmaWxsPSJub25lIiBpZD0iTUQtdG8tSEEiIHN0eWxlPSJzdHJva2U6IzE4MTgxODtzdHJva2Utd2lkdGg6MS4wOyIvPjxwb2x5Z29uIGZpbGw9IiMxODE4MTgiIHBvaW50cz0iMTAwOS42NCw1NjYuNDUsMTAwMi4xMiw1NjAuMDksMTAwNC44NCw1NjUuMDUsOTk5Ljg4LDU2Ny43NywxMDA5LjY0LDU2Ni40NSIgc3R5bGU9InN0cm9rZTojMTgxODE4O3N0cm9rZS13aWR0aDoxLjA7Ii8+PC9nPjwhLS1saW5rIE5TIHRvIFBDTS0tPjxnIGlkPSJsaW5rX05TX1BDTSI+PHBhdGggZD0iTTI4Ny40MywxMTgyIEMzMjEuODEsMTE4MiAzNjMuNywxMTgyIDQwMS42MywxMTgyICIgZmlsbD0ibm9uZSIgaWQ9Ik5TLXRvLVBDTSIgc3R5bGU9InN0cm9rZTojMTgxODE4O3N0cm9rZS13aWR0aDoxLjA7Ii8+PHBvbHlnb24gZmlsbD0iIzE4MTgxOCIgcG9pbnRzPSI0MDYuNzEsMTE4MiwzOTcuNzEsMTE3OCw0MDEuNzEsMTE4MiwzOTcuNzEsMTE4Niw0MDYuNzEsMTE4MiIgc3R5bGU9InN0cm9rZTojMTgxODE4O3N0cm9rZS13aWR0aDoxLjA7Ii8+PC9nPjwhLS1saW5rIE5TIHRvIFZTTS0tPjxnIGlkPSJsaW5rX05TX1ZTTSI+PHBhdGggZD0iTTI4Ny41NiwxMjAyLjk3IEMzMDkuMTcsMTIwOS4yIDMzMi45NiwxMjE1Ljk3IDM1NC44NywxMjIyIEMzNzQuMjcsMTIyNy4zNCAzOTUuMTEsMTIzMi45MyA0MTQuOTQsMTIzOC4xNyAiIGZpbGw9Im5vbmUiIGlkPSJOUy10by1WU00iIHN0eWxlPSJzdHJva2U6IzE4MTgxODtzdHJva2Utd2lkdGg6MS4wOyIvPjxwb2x5Z29uIGZpbGw9IiMxODE4MTgiIHBvaW50cz0iNDE5Ljk2LDEyMzkuNSw0MTIuMjkyMywxMjMzLjMxODksNDE1LjEyODQsMTIzOC4yMTM1LDQxMC4yMzM4LDEyNDEuMDQ5Niw0MTkuOTYsMTIzOS41IiBzdHlsZT0ic3Ryb2tlOiMxODE4MTg7c3Ryb2tlLXdpZHRoOjEuMDsiLz48L2c+PCEtLWxpbmsgUkQgdG8gQU0tLT48ZyBpZD0ibGlua19SRF9BTSI+PHBhdGggZD0iTTI4NC4wMSw4OTEuNTggQzMwMy4zOCw4ODUuNzMgMzIyLjg2LDg3Ni4yNyAzMzYuMzcsODYxIEMzNjQuMDEsODI5Ljc2IDMyNi4yNiw3OTkuMzUgMzU0Ljg3LDc2OSBDMzY4LjMzLDc1NC43MiAzODYuMjIsNzQ1LjMxIDQwNC45OSw3MzkuMTYgIiBmaWxsPSJub25lIiBpZD0iUkQtdG8tQU0iIHN0eWxlPSJzdHJva2U6IzE4MTgxODtzdHJva2Utd2lkdGg6MS4wOyIvPjxwb2x5Z29uIGZpbGw9IiMxODE4MTgiIHBvaW50cz0iNDA5Ljc4LDczNy42NiwzOTkuOTk0Nyw3MzYuNTQzMiw0MDUuMDEwMSw3MzkuMTU5NSw0MDIuMzkzOSw3NDQuMTc1LDQwOS43OCw3MzcuNjYiIHN0eWxlPSJzdHJva2U6IzE4MTgxODtzdHJva2Utd2lkdGg6MS4wOyIvPjwvZz48IS0tbGluayBSRCB0byBQQ0lPLS0+PGcgaWQ9ImxpbmtfUkRfUENJTyI+PHBhdGggZD0iTTI4NC4wOSw4NzkuNDMgQzMyOC4wMiw4NjUuNTQgMzg1LjE4LDg0Ny40NyA0MzAuNiw4MzMuMTEgIiBmaWxsPSJub25lIiBpZD0iUkQtdG8tUENJTyIgc3R5bGU9InN0cm9rZTojMTgxODE4O3N0cm9rZS13aWR0aDoxLjA7Ii8+PHBvbHlnb24gZmlsbD0iIzE4MTgxOCIgcG9pbnRzPSI0MzUuNTIsODMxLjU2LDQyNS43MzA3LDgzMC40NzgzLDQzMC43NTU2LDgzMy4wNzY2LDQyOC4xNTczLDgzOC4xMDE0LDQzNS41Miw4MzEuNTYiIHN0eWxlPSJzdHJva2U6IzE4MTgxODtzdHJva2Utd2lkdGg6MS4wOyIvPjwvZz48IS0tbGluayBTQSB0byBVQUEtLT48ZyBpZD0ibGlua19TQV9VQUEiPjxwYXRoIGQ9Ik01OTIuMTksMjUxLjk2IEM2MjIuODUsMjQ3LjkgNjU4LjIsMjQzLjIyIDY5MS40MiwyMzguODIgIiBmaWxsPSJub25lIiBpZD0iU0EtdG8tVUFBIiBzdHlsZT0ic3Ryb2tlOiMxODE4MTg7c3Ryb2tlLXdpZHRoOjEuMDsiLz48cG9seWdvbiBmaWxsPSIjMTgxODE4IiBwb2ludHM9IjY5Ni43MywyMzguMTIsNjg3LjI4MjQsMjM1LjMzNzQsNjkxLjc3MzQsMjM4Ljc3NzEsNjg4LjMzMzcsMjQzLjI2OCw2OTYuNzMsMjM4LjEyIiBzdHlsZT0ic3Ryb2tlOiMxODE4MTg7c3Ryb2tlLXdpZHRoOjEuMDsiLz48L2c+PCEtLWxpbmsgU0EgdG8gU00yLS0+PGcgaWQ9ImxpbmtfU0FfU00yIj48cGF0aCBkPSJNNTkyLjE5LDI3NC4wNCBDNjM0LjA1LDI3OS41OCA2ODQuNjYsMjg2LjI4IDcyNi42NCwyOTEuODQgIiBmaWxsPSJub25lIiBpZD0iU0EtdG8tU00yIiBzdHlsZT0ic3Ryb2tlOiMxODE4MTg7c3Ryb2tlLXdpZHRoOjEuMDsiLz48cG9seWdvbiBmaWxsPSIjMTgxODE4IiBwb2ludHM9IjczMS43MiwyOTIuNTIsNzIzLjMyMzcsMjg3LjM3Miw3MjYuNzYzNCwyOTEuODYyOSw3MjIuMjcyNCwyOTUuMzAyNiw3MzEuNzIsMjkyLjUyIiBzdHlsZT0ic3Ryb2tlOiMxODE4MTg7c3Ryb2tlLXdpZHRoOjEuMDsiLz48L2c+PCEtLVNSQz1bWExQVFl6RDA1N3RsaG5ac25RVDVzMXlXSDJEa2VUYzZKYlNWbjhWZlBCT1REZnE5Q3JFYlkyM3UwT2dBdHVnQXU4RVdCdWsyb0JoaG52emZNbHFOSllRSlA5ZTR4S0NmOW9WdGQ3bGR0WmtMLXZHYklBMGZtN29RUzRRT1djZVU0cDJSbmJrVHBXZG0tIC0zZHdpVDFVZFdaX05uei1WblItbDNIdWxaenVsbEJ6RHhwclNVWkZvLSAtVDZBb2Z1M1lHRDNuSDg2ODJlOEx2SW54RUpydWpWWHNQdEx5U3Q3eUROcnlSX2RpcV9CLUdOaHFmOUNXbDhfNjE2bmk0bklob1JhUDRYNTUzNm5wY0wyNU9YMFdmZnpGakhxMHZyQUh3R1F1c1c3d0t6ZTQ1cUVhUUZSM0l2OUIwNGFHVWRNNnB4N1k4WUVTbDQxNmVDaUs0Tmk4NHFGdDZfSG1XaUdLdVJjTHA4RjJFZ2s3SGMxOHk4SEhkNWJza0JxNnJxZDNIdDhvdVpmRkdtdHlFZExkOVlIYk9tMExvaWZkTTNrRFcwRTJJUDh6MXB3SC11T3FROEpBQkc0bGNiODZHaUg4UjhXbUp6WHlIS1lYNFBCdzE4ZWctWFJQQzVkeGZza3FGNmpQdV9LUWw4MTQ1QUZTZVNpQzZhb1R3RHhVRVdhc0lGaGVFNkxnc2QzZVFRaFhYWHhPWkZXTGpkY2dURXN0R3dQMURMUU8zYzU5QXpwckQ5SnJpeUNBVkIwdklwRzB3cTBIVW1Tc3YwUC05VVN2TThxNmxMQWsxVWVyZVMyMXJhb0xHNWFORk5zdFJfc3Z5TTd2dmR2d3pycS1XLVAxRU5sNW9LQ1lCYkRDUDM1WXNRU1NoVzRQS3diNHJQRlhlMkF2Zm1Gblg0SXBNQlVtZU5jbWVrS3o0VWpPYzhpOFU1WUJvTm1DMWZ1aEVKVUhHaTRwR1g0ZjMwdGJNY1ZUbFB0al92V3RXaktLc1dvMllrZkpENlBTQWVoMWFGQ3VqLUtGQXk5RzRBSWlCb0FuZUFGMnNCM1RNQkw1TWd0YkdWOFBSY0l3TEktUWVOTlBQUXRGblJvVUlUMERNWXJhbXpnZ1JZUXVCbzhZd2c2NlZRU2UwbzlkaUc5ZGNIQnBWQ1VTUlRMbmp0SVJOM3hZRElOZTJFckF4S0p0MHZfZjQzTlVoa1NHb3VsMUJCTnJaanBzTWlzTDJfTFY3Tjg2MlRCZVpwRUV5N2NaMmtjT1dPMHBnYS1YRUF0cGlCdHVyT2ZrTE5QZGZZUmk5Ym1RZDEyeWx6YmI5X2twbWJzdHR3ZmhqdHVfOE5ialBCbC1NaWJSZ2hkaEVJRGZPek9vWHk2TXdxM19JVlpyVGxkV1ZORlZCMHVWaDV1VmZhVEZMd3prUGp6RkZ2R2hrellFVGZzdWE1cVRCYkppWVJLdG1xdlpzemw5VFkweG9XdW9qRXl2d3h5T0ZGVDZxQURMTldkNWN0UDY3NFdGSGRhZk1DWXNYT0NLZFVuMGtjU1JUdVRqRW1WQU1nbi1UelhPeGNzSVRLSHYydklRTlh0QVprdFFObTAwXS0tPjwvZz48L3N2Zz4=;" vertex="1" parent="1">
            <mxGeometry x="-90" y="-430" width="1235" height="1332" as="geometry" />
          </mxCell>
        </UserObject>
      </root>
    </mxGraphModel>
  </diagram>
</mxfile>
